<?xml version="1.0" encoding="UTF-8"?>
<svg xmlns="http://www.w3.org/2000/svg" viewBox="0 0 271 783">
  <defs>
    <style>
      .cls-1 {
        font-size: 10.72px;
      }

      .cls-1, .cls-2, .cls-3, .cls-4, .cls-5 {
        font-family: ArialNarrow, Arial;
      }

      .cls-2 {
        font-size: 10.74px;
      }

      .cls-6 {
        fill: #f0f0f0;
      }

      .cls-7 {
        stroke-miterlimit: 10;
      }

      .cls-7, .cls-8 {
        fill: none;
        stroke: #000;
      }

      .cls-9 {
        fill: #af5a00;
      }

      .cls-3 {
        font-size: 13.37px;
      }

      .cls-10 {
        fill: #ff9d5b;
      }

      .cls-4 {
        font-size: 6.22px;
      }

      .cls-5 {
        font-size: 10.98px;
      }

      .cls-11 {
        fill: #87d2ff;
      }

      .cls-8 {
        stroke-linecap: round;
        stroke-linejoin: round;
        stroke-width: .72px;
      }
    </style>
  </defs>
  <line class="cls-8" x1="247.55" y1="464.71" x2="152.15" y2="464.71"/>
  <line class="cls-8" x1="152.15" y1="480.13" x2="152.03" y2="480.13"/>
  <line class="cls-8" x1="253.37" y1="117.85" x2="253.37" y2="19.57"/>
  <line class="cls-8" x1="119.57" y1="116.89" x2="119.57" y2="141.43"/>
  <line class="cls-8" x1="121.49" y1="122.47" x2="121.49" y2="141.43"/>
  <line class="cls-8" x1="119.69" y1="665.65" x2="119.69" y2="586.21"/>
  <line class="cls-8" x1="121.49" y1="665.65" x2="121.49" y2="586.21"/>
  <line class="cls-8" x1="252.17" y1="766.75" x2="146.75" y2="766.75"/>
  <line class="cls-8" x1="152.03" y1="763.69" x2="252.17" y2="763.69"/>
  <line class="cls-8" x1="60.83" y1="761.83" x2="60.83" y2="739.45"/>
  <line class="cls-8" x1="150.17" y1="756.01" x2="150.17" y2="678.97"/>
  <line class="cls-8" x1="152.03" y1="763.69" x2="152.03" y2="761.83"/>
  <line class="cls-8" x1="152.03" y1="761.83" x2="152.03" y2="678.97"/>
  <line class="cls-8" x1="55.49" y1="766.75" x2="55.49" y2="758.59"/>
  <line class="cls-8" x1="152.03" y1="761.83" x2="146.75" y2="761.83"/>
  <line class="cls-8" x1="59.87" y1="673.63" x2="119.45" y2="673.63"/>
  <line class="cls-8" x1="84.41" y1="692.83" x2="97.97" y2="692.83"/>
  <line class="cls-8" x1="86.21" y1="694.63" x2="97.97" y2="694.63"/>
  <line class="cls-8" x1="127.91" y1="719.59" x2="86.21" y2="719.59"/>
  <line class="cls-8" x1="127.91" y1="718.93" x2="86.21" y2="718.93"/>
  <line class="cls-8" x1="86.21" y1="719.59" x2="127.91" y2="719.59"/>
  <line class="cls-8" x1="127.25" y1="718.93" x2="86.21" y2="718.93"/>
  <line class="cls-8" x1="86.21" y1="717.55" x2="127.91" y2="717.55"/>
  <line class="cls-8" x1="86.21" y1="718.21" x2="127.25" y2="718.21"/>
  <line class="cls-8" x1="24.11" y1="670.99" x2="119.57" y2="670.99"/>
  <line class="cls-8" x1="84.41" y1="716.53" x2="59.87" y2="716.53"/>
  <line class="cls-8" x1="86.21" y1="719.59" x2="60.83" y2="719.59"/>
  <g id="Elevator2">
    <rect class="cls-10" x="60.86" y="694.81" width="22.56" height="20.22"/>
    <polyline class="cls-8" points="83.51 694.63 61.13 694.63 61.13 715.03 83.51 715.03 83.51 694.63"/>
  </g>
  <polyline class="cls-8" points="60.83 719.59 60.83 726.25 57.89 726.25"/>
  <polyline class="cls-8" points="60.83 739.45 57.89 739.45 57.89 754.33"/>
  <line class="cls-8" x1="84.41" y1="709.99" x2="84.41" y2="716.53"/>
  <line class="cls-8" x1="86.21" y1="709.99" x2="86.21" y2="719.59"/>
  <line class="cls-8" x1="84.41" y1="692.83" x2="84.41" y2="699.31"/>
  <line class="cls-8" x1="84.41" y1="709.99" x2="86.21" y2="709.99"/>
  <polyline class="cls-8" points="84.41 699.31 86.21 699.31 86.21 694.63"/>
  <line class="cls-8" x1="59.87" y1="673.63" x2="59.87" y2="716.53"/>
  <line class="cls-8" x1="57.89" y1="680.29" x2="57.89" y2="726.25"/>
  <polyline class="cls-8" points="24.11 673.63 24.11 670.99 20.09 670.99 20.09 673.63 19.25 673.63"/>
  <polyline class="cls-8" points="20.09 650.47 20.09 647.77 24.11 647.77 24.11 650.47 20.09 650.47"/>
  <polyline class="cls-8" points="55.49 758.59 18.23 758.59 18.23 752.65"/>
  <line class="cls-8" x1="24.11" y1="754.33" x2="24.11" y2="714.91"/>
  <line class="cls-8" x1="19.25" y1="752.65" x2="18.23" y2="752.65"/>
  <line class="cls-8" x1="24.11" y1="712.63" x2="24.11" y2="673.63"/>
  <line class="cls-8" x1="19.25" y1="673.63" x2="19.25" y2="752.65"/>
  <line class="cls-8" x1="24.11" y1="680.29" x2="57.89" y2="680.29"/>
  <line class="cls-8" x1="57.89" y1="754.33" x2="24.11" y2="754.33"/>
  <line class="cls-8" x1="150.29" y1="665.65" x2="150.29" y2="641.29"/>
  <line class="cls-8" x1="152.15" y1="665.65" x2="152.15" y2="641.29"/>
  <line class="cls-8" x1="150.29" y1="665.65" x2="147.47" y2="665.65"/>
  <line class="cls-8" x1="150.17" y1="678.97" x2="147.47" y2="678.97"/>
  <line class="cls-8" x1="152.03" y1="665.65" x2="152.03" y2="678.97"/>
  <line class="cls-8" x1="147.47" y1="669.25" x2="147.47" y2="675.61"/>
  <line class="cls-8" x1="147.47" y1="678.97" x2="147.47" y2="665.65"/>
  <line class="cls-8" x1="152.15" y1="641.29" x2="150.29" y2="641.29"/>
  <line class="cls-8" x1="124.13" y1="678.97" x2="124.13" y2="665.65"/>
  <line class="cls-8" x1="119.57" y1="665.65" x2="119.57" y2="670.99"/>
  <line class="cls-8" x1="119.45" y1="673.63" x2="119.57" y2="678.97"/>
  <line class="cls-8" x1="119.57" y1="665.65" x2="119.69" y2="665.65"/>
  <line class="cls-8" x1="121.49" y1="665.65" x2="124.13" y2="665.65"/>
  <line class="cls-8" x1="119.57" y1="678.97" x2="121.31" y2="678.97"/>
  <polyline class="cls-8" points="121.31 694.63 121.31 695.29 123.05 695.29"/>
  <line class="cls-8" x1="127.25" y1="718.93" x2="127.25" y2="718.21"/>
  <line class="cls-8" x1="108.65" y1="692.83" x2="108.65" y2="694.63"/>
  <line class="cls-8" x1="97.97" y1="692.83" x2="97.97" y2="694.63"/>
  <line class="cls-8" x1="108.65" y1="694.63" x2="121.31" y2="694.63"/>
  <line class="cls-8" x1="108.65" y1="692.83" x2="121.31" y2="692.83"/>
  <line class="cls-8" x1="121.31" y1="678.97" x2="121.31" y2="692.83"/>
  <line class="cls-8" x1="123.05" y1="678.97" x2="123.05" y2="695.29"/>
  <g id="Elevator1">
    <rect class="cls-10" x="91.19" y="674.35" width="22.56" height="16.92"/>
    <polyline class="cls-8" points="113.75 674.35 91.37 674.35 91.37 691.27 113.75 691.27 113.75 674.35"/>
  </g>
  <line class="cls-8" x1="252.17" y1="763.69" x2="252.17" y2="766.75"/>
  <polyline class="cls-8" points="251.51 673.63 251.51 670.99 247.55 670.99 247.55 673.63 251.51 673.63"/>
  <polyline class="cls-8" points="247.55 650.47 247.55 647.77 251.51 647.77 251.51 650.47 247.55 650.47"/>
  <line class="cls-8" x1="251.51" y1="694.15" x2="251.51" y2="696.85"/>
  <line class="cls-8" x1="251.51" y1="740.53" x2="251.51" y2="743.17"/>
  <line class="cls-8" x1="251.51" y1="717.37" x2="251.51" y2="720.01"/>
  <line class="cls-8" x1="247.55" y1="694.15" x2="251.51" y2="694.15"/>
  <polyline class="cls-8" points="247.55 694.15 247.55 696.85 251.51 696.85 247.55 696.85"/>
  <polyline class="cls-8" points="251.51 717.37 247.55 717.37 247.55 720.01 251.51 720.01"/>
  <polyline class="cls-8" points="251.51 740.53 247.55 740.53 247.55 743.17 251.51 743.17"/>
  <line class="cls-8" x1="147.47" y1="400.75" x2="147.47" y2="387.37"/>
  <line class="cls-8" x1="152.03" y1="387.37" x2="152.03" y2="393.19"/>
  <line class="cls-8" x1="152.03" y1="394.93" x2="152.03" y2="400.75"/>
  <line class="cls-8" x1="124.13" y1="400.75" x2="124.13" y2="387.37"/>
  <line class="cls-8" x1="247.55" y1="393.19" x2="152.03" y2="393.19"/>
  <line class="cls-8" x1="247.55" y1="394.93" x2="152.03" y2="394.93"/>
  <line class="cls-8" x1="152.15" y1="555.49" x2="171.65" y2="555.49"/>
  <line class="cls-8" x1="224.75" y1="534.07" x2="212.33" y2="534.07"/>
  <line class="cls-8" x1="210.47" y1="534.07" x2="173.51" y2="534.07"/>
  <line class="cls-8" x1="171.65" y1="534.07" x2="152.15" y2="534.07"/>
  <line class="cls-8" x1="228.05" y1="532.33" x2="152.15" y2="532.33"/>
  <line class="cls-8" x1="152.15" y1="557.17" x2="247.55" y2="557.17"/>
  <line class="cls-8" x1="247.55" y1="627.01" x2="152.15" y2="627.01"/>
  <line class="cls-8" x1="247.55" y1="624.79" x2="152.15" y2="624.79"/>
  <line class="cls-8" x1="119.69" y1="555.25" x2="119.69" y2="493.51"/>
  <line class="cls-8" x1="119.69" y1="557.41" x2="24.11" y2="557.41"/>
  <polyline class="cls-8" points="119.69 555.25 101.57 555.25 24.11 555.25"/>
  <line class="cls-8" x1="24.11" y1="578.23" x2="20.09" y2="578.23"/>
  <polyline class="cls-8" points="24.11 578.23 24.11 580.87 20.09 580.87 20.09 578.23"/>
  <line class="cls-8" x1="20.09" y1="555.01" x2="20.09" y2="557.71"/>
  <polyline class="cls-8" points="20.09 555.01 24.11 555.01 24.11 557.71 20.09 557.71"/>
  <line class="cls-8" x1="20.09" y1="531.85" x2="20.09" y2="534.49"/>
  <polyline class="cls-8" points="20.09 534.49 20.09 531.85 24.11 531.85 24.11 534.49 20.09 534.49"/>
  <polyline class="cls-8" points="20.09 604.09 24.11 604.09 24.11 601.39 20.09 601.39 20.09 604.09 24.11 604.09"/>
  <line class="cls-8" x1="24.11" y1="624.61" x2="24.11" y2="627.25"/>
  <polyline class="cls-8" points="24.11 624.61 20.09 624.61 20.09 627.25 24.11 627.25"/>
  <polyline class="cls-8" points="150.29 555.49 150.29 551.59 152.15 551.59 152.15 555.49"/>
  <line class="cls-8" x1="147.59" y1="586.09" x2="147.59" y2="572.77"/>
  <line class="cls-8" x1="147.59" y1="576.37" x2="147.59" y2="582.73"/>
  <line class="cls-8" x1="152.15" y1="572.77" x2="152.15" y2="586.09"/>
  <line class="cls-8" x1="150.29" y1="572.77" x2="147.59" y2="572.77"/>
  <line class="cls-8" x1="150.29" y1="586.09" x2="147.59" y2="586.09"/>
  <polyline class="cls-8" points="152.15 532.33 152.15 520.87 150.29 520.87 150.29 538.39 152.15 538.39 152.15 534.07"/>
  <line class="cls-8" x1="152.15" y1="572.23" x2="150.29" y2="572.23"/>
  <polyline class="cls-8" points="152.15 557.17 152.15 559.03 150.29 559.03"/>
  <line class="cls-8" x1="152.15" y1="572.77" x2="152.15" y2="572.23"/>
  <line class="cls-8" x1="150.29" y1="559.03" x2="150.29" y2="553.27"/>
  <line class="cls-8" x1="150.29" y1="572.77" x2="150.29" y2="572.23"/>
  <line class="cls-8" x1="119.69" y1="586.21" x2="124.25" y2="586.21"/>
  <line class="cls-8" x1="121.61" y1="572.89" x2="124.25" y2="572.89"/>
  <line class="cls-8" x1="119.69" y1="572.89" x2="119.69" y2="586.21"/>
  <line class="cls-8" x1="124.25" y1="576.49" x2="124.25" y2="582.91"/>
  <line class="cls-8" x1="124.25" y1="586.21" x2="124.25" y2="572.89"/>
  <line class="cls-8" x1="119.69" y1="558.37" x2="119.69" y2="557.41"/>
  <polyline class="cls-8" points="119.69 558.37 121.61 558.37 121.61 493.51"/>
  <line class="cls-8" x1="119.69" y1="572.89" x2="119.69" y2="571.57"/>
  <polyline class="cls-8" points="121.61 572.89 121.61 571.57 119.69 571.57"/>
  <polyline class="cls-8" points="152.15 627.01 152.15 628.09 150.29 628.09"/>
  <line class="cls-8" x1="152.15" y1="624.79" x2="152.15" y2="621.49"/>
  <polyline class="cls-8" points="150.29 628.09 150.29 621.49 150.29 586.09"/>
  <line class="cls-8" x1="152.15" y1="621.49" x2="152.15" y2="582.01"/>
  <line class="cls-8" x1="121.49" y1="441.49" x2="24.11" y2="441.49"/>
  <line class="cls-8" x1="119.69" y1="439.27" x2="24.11" y2="439.27"/>
  <line class="cls-8" x1="121.49" y1="462.49" x2="24.11" y2="462.49"/>
  <line class="cls-8" x1="119.69" y1="464.71" x2="24.11" y2="464.71"/>
  <line class="cls-8" x1="20.09" y1="462.31" x2="20.09" y2="464.95"/>
  <polyline class="cls-8" points="20.09 462.31 24.11 462.31 24.11 464.95 20.09 464.95"/>
  <polyline class="cls-8" points="22.49 461.59 22.49 462.31 20.93 462.31"/>
  <polyline class="cls-8" points="20.09 462.31 24.11 462.31 24.11 464.95 20.09 464.95"/>
  <line class="cls-8" x1="22.49" y1="461.59" x2="22.49" y2="462.31"/>
  <line class="cls-8" x1="20.09" y1="462.31" x2="20.09" y2="464.95"/>
  <line class="cls-8" x1="24.11" y1="415.93" x2="20.09" y2="415.93"/>
  <polyline class="cls-8" points="24.11 415.93 24.11 418.57 20.09 418.57"/>
  <line class="cls-8" x1="20.09" y1="392.71" x2="20.09" y2="395.41"/>
  <line class="cls-8" x1="20.09" y1="415.93" x2="20.09" y2="418.57"/>
  <line class="cls-8" x1="24.11" y1="392.71" x2="20.09" y2="392.71"/>
  <polyline class="cls-8" points="24.11 392.71 24.11 395.41 20.09 395.41 20.09 392.71"/>
  <line class="cls-8" x1="24.11" y1="439.09" x2="24.11" y2="441.79"/>
  <polyline class="cls-8" points="20.09 439.09 20.09 441.79 24.11 441.79"/>
  <line class="cls-8" x1="22.49" y1="442.45" x2="22.49" y2="441.79"/>
  <line class="cls-8" x1="24.11" y1="439.09" x2="20.09" y2="439.09"/>
  <line class="cls-8" x1="24.11" y1="485.47" x2="20.09" y2="485.47"/>
  <polyline class="cls-8" points="24.11 485.47 24.11 488.17 20.09 488.17 20.09 485.47"/>
  <line class="cls-8" x1="24.11" y1="508.63" x2="20.09" y2="508.63"/>
  <polyline class="cls-8" points="24.11 508.63 24.11 511.33 20.09 511.33 20.09 508.63"/>
  <line class="cls-8" x1="119.69" y1="302.35" x2="119.69" y2="403.69"/>
  <line class="cls-8" x1="119.69" y1="416.89" x2="119.69" y2="439.27"/>
  <line class="cls-8" x1="119.69" y1="403.69" x2="121.49" y2="403.69"/>
  <line class="cls-8" x1="119.69" y1="416.89" x2="121.49" y2="416.89"/>
  <line class="cls-8" x1="119.69" y1="478.99" x2="119.69" y2="480.13"/>
  <polyline class="cls-8" points="119.69 478.99 121.49 478.99 121.49 480.13"/>
  <line class="cls-8" x1="119.69" y1="465.73" x2="121.49" y2="465.73"/>
  <line class="cls-8" x1="152.03" y1="415.57" x2="152.03" y2="462.49"/>
  <line class="cls-8" x1="152.15" y1="464.71" x2="152.03" y2="480.13"/>
  <line class="cls-8" x1="150.17" y1="415.57" x2="150.17" y2="429.13"/>
  <polyline class="cls-8" points="150.17 430.51 150.17 480.13 147.59 480.13"/>
  <line class="cls-8" x1="152.03" y1="400.75" x2="152.03" y2="402.37"/>
  <line class="cls-8" x1="150.17" y1="400.75" x2="150.17" y2="402.37"/>
  <line class="cls-8" x1="150.17" y1="415.57" x2="152.03" y2="415.57"/>
  <line class="cls-8" x1="150.17" y1="402.37" x2="152.03" y2="402.37"/>
  <line class="cls-8" x1="147.47" y1="390.97" x2="147.47" y2="397.39"/>
  <line class="cls-8" x1="150.17" y1="400.75" x2="147.47" y2="400.75"/>
  <line class="cls-8" x1="121.49" y1="480.13" x2="124.25" y2="480.13"/>
  <line class="cls-8" x1="121.49" y1="400.75" x2="124.13" y2="400.75"/>
  <line class="cls-8" x1="124.13" y1="390.97" x2="124.13" y2="397.39"/>
  <line class="cls-8" x1="121.49" y1="462.49" x2="121.49" y2="465.73"/>
  <line class="cls-8" x1="121.49" y1="400.75" x2="121.49" y2="403.69"/>
  <line class="cls-8" x1="121.49" y1="416.89" x2="121.49" y2="429.13"/>
  <line class="cls-8" x1="121.49" y1="430.51" x2="121.49" y2="441.49"/>
  <line class="cls-8" x1="119.69" y1="464.71" x2="119.69" y2="465.73"/>
  <line class="cls-8" x1="150.29" y1="493.51" x2="147.59" y2="493.51"/>
  <line class="cls-8" x1="147.59" y1="483.73" x2="147.59" y2="490.15"/>
  <polyline class="cls-8" points="152.15 493.51 152.15 507.67 150.29 507.67 150.29 493.51"/>
  <line class="cls-8" x1="124.25" y1="483.73" x2="124.25" y2="490.15"/>
  <line class="cls-8" x1="121.61" y1="493.51" x2="124.25" y2="493.51"/>
  <line class="cls-8" x1="152.15" y1="480.13" x2="152.15" y2="493.51"/>
  <line class="cls-8" x1="147.59" y1="493.51" x2="147.59" y2="480.13"/>
  <line class="cls-8" x1="124.25" y1="493.51" x2="124.25" y2="480.13"/>
  <line class="cls-8" x1="119.69" y1="480.13" x2="119.69" y2="493.51"/>
  <line class="cls-8" x1="247.55" y1="534.07" x2="241.25" y2="534.07"/>
  <line class="cls-8" x1="247.55" y1="532.33" x2="241.25" y2="532.33"/>
  <line class="cls-8" x1="173.51" y1="555.55" x2="210.47" y2="555.55"/>
  <line class="cls-8" x1="212.33" y1="555.55" x2="224.75" y2="555.55"/>
  <line class="cls-8" x1="227.39" y1="555.55" x2="247.55" y2="555.55"/>
  <line class="cls-8" x1="224.75" y1="534.07" x2="224.75" y2="555.55"/>
  <line class="cls-8" x1="227.39" y1="534.07" x2="227.39" y2="555.55"/>
  <polyline class="cls-8" points="228.05 532.33 228.05 534.07 227.39 534.07"/>
  <line class="cls-8" x1="241.25" y1="532.33" x2="241.25" y2="534.07"/>
  <polyline class="cls-8" points="171.65 555.49 171.65 551.05 173.51 551.05 173.51 555.55"/>
  <line class="cls-8" x1="171.65" y1="534.07" x2="171.65" y2="537.85"/>
  <polyline class="cls-8" points="173.51 534.07 173.51 537.85 171.65 537.85"/>
  <line class="cls-8" x1="247.55" y1="555.01" x2="251.51" y2="555.01"/>
  <polyline class="cls-8" points="247.55 555.01 247.55 557.71 251.51 557.71 251.51 555.01"/>
  <line class="cls-8" x1="247.55" y1="578.23" x2="247.55" y2="580.87"/>
  <polyline class="cls-8" points="247.55 578.23 251.51 578.23 251.51 580.87 247.55 580.87"/>
  <polyline class="cls-8" points="247.55 534.49 247.55 531.85 251.51 531.85 251.51 534.49 247.55 534.49"/>
  <line class="cls-8" x1="251.51" y1="531.85" x2="251.51" y2="534.49"/>
  <line class="cls-8" x1="247.55" y1="624.61" x2="251.51" y2="624.61"/>
  <polyline class="cls-8" points="247.55 624.61 247.55 627.25 251.51 627.25 251.51 624.61"/>
  <polyline class="cls-8" points="251.51 604.09 251.51 601.39 247.55 601.39 247.55 604.09 251.51 604.09 247.55 604.09"/>
  <polyline class="cls-8" points="247.55 464.95 247.55 462.31 251.51 462.31 251.51 464.95 247.55 464.95"/>
  <line class="cls-8" x1="247.55" y1="462.31" x2="251.51" y2="462.31"/>
  <polyline class="cls-8" points="247.55 462.31 247.55 464.95 251.51 464.95 251.51 462.31"/>
  <line class="cls-8" x1="251.51" y1="392.71" x2="251.51" y2="395.41"/>
  <polyline class="cls-8" points="251.51 392.71 247.55 392.71 247.55 395.41 251.51 395.41"/>
  <line class="cls-8" x1="251.51" y1="415.93" x2="251.51" y2="418.57"/>
  <line class="cls-8" x1="251.51" y1="392.71" x2="251.51" y2="395.41"/>
  <polyline class="cls-8" points="251.51 415.93 247.55 415.93 247.55 418.57 251.51 418.57"/>
  <line class="cls-8" x1="247.55" y1="439.09" x2="251.51" y2="439.09"/>
  <polyline class="cls-8" points="247.55 439.09 247.55 441.79 251.51 441.79 251.51 439.09"/>
  <line class="cls-8" x1="251.51" y1="508.63" x2="251.51" y2="511.33"/>
  <polyline class="cls-8" points="251.51 508.63 247.55 508.63 247.55 511.33 251.51 511.33"/>
  <line class="cls-8" x1="251.51" y1="485.47" x2="251.51" y2="488.17"/>
  <polyline class="cls-8" points="251.51 485.47 247.55 485.47 247.55 488.17 251.51 488.17"/>
  <line class="cls-8" x1="247.55" y1="162.37" x2="150.11" y2="162.37"/>
  <line class="cls-8" x1="247.55" y1="164.17" x2="196.91" y2="164.17"/>
  <line class="cls-8" x1="195.35" y1="164.17" x2="150.11" y2="164.17"/>
  <line class="cls-8" x1="152.03" y1="277.33" x2="247.55" y2="277.33"/>
  <line class="cls-8" x1="150.17" y1="278.95" x2="195.35" y2="278.95"/>
  <line class="cls-8" x1="196.91" y1="278.95" x2="247.55" y2="278.95"/>
  <line class="cls-8" x1="20.09" y1="369.55" x2="20.09" y2="372.19"/>
  <polyline class="cls-8" points="20.09 369.55 24.11 369.55 24.11 372.19 20.09 372.19"/>
  <line class="cls-8" x1="20.09" y1="346.33" x2="20.09" y2="349.03"/>
  <polyline class="cls-8" points="20.09 346.33 24.11 346.33 24.11 349.03 20.09 349.03"/>
  <line class="cls-8" x1="24.11" y1="276.79" x2="20.09" y2="276.79"/>
  <polyline class="cls-8" points="24.11 276.79 24.11 279.43 20.09 279.43 20.09 276.79"/>
  <line class="cls-8" x1="24.11" y1="299.95" x2="24.11" y2="302.65"/>
  <line class="cls-8" x1="20.09" y1="299.95" x2="20.09" y2="302.65"/>
  <polyline class="cls-8" points="20.09 323.17 24.11 323.17 24.11 325.81 20.09 325.81"/>
  <line class="cls-8" x1="24.11" y1="302.65" x2="20.09" y2="302.65"/>
  <line class="cls-8" x1="20.09" y1="323.17" x2="20.09" y2="325.81"/>
  <line class="cls-8" x1="24.11" y1="299.95" x2="20.09" y2="299.95"/>
  <line class="cls-8" x1="150.17" y1="265.27" x2="152.03" y2="265.27"/>
  <line class="cls-8" x1="152.03" y1="296.59" x2="152.03" y2="307.99"/>
  <line class="cls-8" x1="147.47" y1="298.21" x2="147.47" y2="304.63"/>
  <polyline class="cls-8" points="150.17 307.99 147.47 307.99 147.47 294.97"/>
  <polyline class="cls-8" points="124.13 294.61 124.13 307.99 124.13 294.61"/>
  <line class="cls-8" x1="124.13" y1="298.21" x2="124.13" y2="304.63"/>
  <line class="cls-8" x1="121.49" y1="307.99" x2="124.13" y2="307.99"/>
  <line class="cls-8" x1="124.13" y1="298.21" x2="124.13" y2="304.63"/>
  <line class="cls-8" x1="121.49" y1="294.61" x2="124.13" y2="294.61"/>
  <line class="cls-8" x1="121.49" y1="307.99" x2="121.49" y2="387.37"/>
  <line class="cls-8" x1="152.03" y1="265.27" x2="152.03" y2="277.33"/>
  <line class="cls-8" x1="150.17" y1="265.27" x2="150.17" y2="278.95"/>
  <line class="cls-8" x1="150.17" y1="387.37" x2="147.47" y2="387.37"/>
  <line class="cls-8" x1="121.49" y1="387.37" x2="124.13" y2="387.37"/>
  <line class="cls-8" x1="152.03" y1="307.99" x2="152.03" y2="309.13"/>
  <line class="cls-8" x1="152.03" y1="322.33" x2="152.03" y2="323.65"/>
  <line class="cls-8" x1="152.03" y1="325.39" x2="152.03" y2="359.47"/>
  <line class="cls-8" x1="150.17" y1="307.99" x2="150.17" y2="309.13"/>
  <line class="cls-8" x1="150.17" y1="322.33" x2="150.17" y2="359.47"/>
  <line class="cls-8" x1="20.09" y1="160.87" x2="20.09" y2="163.51"/>
  <polyline class="cls-8" points="20.09 160.87 24.11 160.87 24.11 163.51 20.09 163.51"/>
  <polyline class="cls-8" points="24.11 256.27 24.11 253.63 20.09 253.63 20.09 256.27 24.11 256.27"/>
  <line class="cls-8" x1="20.09" y1="253.63" x2="20.09" y2="256.27"/>
  <polyline class="cls-8" points="24.11 186.73 24.11 184.03 20.09 184.03 20.09 186.73 24.11 186.73"/>
  <line class="cls-8" x1="20.09" y1="230.41" x2="20.09" y2="233.11"/>
  <polyline class="cls-8" points="20.09 230.41 24.11 230.41 24.11 233.11 20.09 233.11"/>
  <line class="cls-8" x1="20.09" y1="207.25" x2="20.09" y2="209.89"/>
  <polyline class="cls-8" points="20.09 207.25 24.11 207.25 24.11 209.89 20.09 209.89"/>
  <line class="cls-8" x1="24.11" y1="184.03" x2="20.09" y2="184.03"/>
  <polyline class="cls-8" points="24.11 184.03 24.11 186.73 20.09 186.73 20.09 184.03"/>
  <line class="cls-8" x1="121.49" y1="154.63" x2="121.49" y2="165.91"/>
  <line class="cls-8" x1="119.57" y1="154.63" x2="119.57" y2="161.05"/>
  <line class="cls-8" x1="121.49" y1="165.91" x2="121.49" y2="201.91"/>
  <polyline class="cls-8" points="150.17 215.23 147.47 215.23 147.47 202.69 149.63 202.69"/>
  <line class="cls-8" x1="151.43" y1="182.29" x2="151.43" y2="208.45"/>
  <line class="cls-8" x1="149.63" y1="180.73" x2="149.63" y2="202.69"/>
  <polyline class="cls-8" points="150.17 215.23 150.17 252.07 152.03 252.07 152.03 210.01"/>
  <line class="cls-8" x1="124.13" y1="205.51" x2="124.13" y2="211.87"/>
  <polyline class="cls-8" points="124.13 215.23 124.13 201.91 121.49 201.91"/>
  <line class="cls-8" x1="150.11" y1="162.37" x2="150.11" y2="164.17"/>
  <line class="cls-8" x1="247.55" y1="346.33" x2="251.51" y2="346.33"/>
  <polyline class="cls-8" points="247.55 346.33 247.55 349.03 251.51 349.03 251.51 346.33"/>
  <line class="cls-8" x1="247.55" y1="369.55" x2="251.51" y2="369.55"/>
  <polyline class="cls-8" points="247.55 369.55 247.55 372.19 251.51 372.19 251.51 369.55"/>
  <line class="cls-8" x1="247.55" y1="299.95" x2="251.51" y2="299.95"/>
  <line class="cls-8" x1="251.51" y1="323.17" x2="251.51" y2="325.81"/>
  <line class="cls-8" x1="247.55" y1="302.65" x2="251.51" y2="302.65"/>
  <line class="cls-8" x1="247.55" y1="323.17" x2="251.51" y2="323.17"/>
  <polyline class="cls-8" points="247.55 323.17 247.55 325.81 251.51 325.81"/>
  <line class="cls-8" x1="251.51" y1="299.95" x2="251.51" y2="302.65"/>
  <line class="cls-8" x1="247.55" y1="299.95" x2="247.55" y2="302.65"/>
  <line class="cls-8" x1="251.51" y1="276.79" x2="251.51" y2="279.43"/>
  <polyline class="cls-8" points="251.51 276.79 247.55 276.79 247.55 279.43 251.51 279.43"/>
  <polyline class="cls-8" points="247.55 160.15 247.55 164.17 250.97 164.17"/>
  <line class="cls-8" x1="251.51" y1="253.63" x2="251.51" y2="256.27"/>
  <polyline class="cls-8" points="251.51 256.27 251.51 253.63 247.55 253.63 247.55 256.27 251.51 256.27"/>
  <line class="cls-8" x1="247.55" y1="230.41" x2="251.51" y2="230.41"/>
  <polyline class="cls-8" points="247.55 230.41 247.55 233.11 251.51 233.11 251.51 230.41"/>
  <line class="cls-8" x1="251.51" y1="184.69" x2="251.51" y2="187.39"/>
  <polyline class="cls-8" points="251.51 184.69 247.55 184.69 247.55 187.39 251.51 187.39"/>
  <polyline class="cls-8" points="247.55 210.55 247.55 207.91 251.51 207.91 251.51 210.55 247.55 210.55"/>
  <line class="cls-8" x1="251.51" y1="207.91" x2="251.51" y2="210.55"/>
  <line class="cls-8" x1="170.09" y1="23.89" x2="155.27" y2="23.89"/>
  <line class="cls-8" x1="171.53" y1="19.57" x2="153.89" y2="19.57"/>
  <line class="cls-8" x1="130.37" y1="22.51" x2="133.31" y2="19.57"/>
  <line class="cls-8" x1="19.25" y1="19.57" x2="19.25" y2="22.45"/>
  <line class="cls-8" x1="130.37" y1="23.89" x2="24.11" y2="23.89"/>
  <line class="cls-8" x1="20.09" y1="44.89" x2="20.09" y2="47.59"/>
  <polyline class="cls-8" points="20.09 44.89 24.11 44.89 24.11 47.59 20.09 47.59"/>
  <line class="cls-8" x1="24.11" y1="23.89" x2="24.11" y2="24.43"/>
  <line class="cls-8" x1="20.09" y1="22.45" x2="20.09" y2="24.43"/>
  <polyline class="cls-8" points="22.49 24.43 20.93 24.43 20.93 25.09"/>
  <line class="cls-8" x1="24.11" y1="24.43" x2="20.09" y2="24.43"/>
  <line class="cls-8" x1="20.09" y1="22.45" x2="19.25" y2="22.45"/>
  <line class="cls-8" x1="20.09" y1="137.65" x2="20.09" y2="140.35"/>
  <polyline class="cls-8" points="20.09 137.65 24.11 137.65 24.11 140.35 20.09 140.35"/>
  <line class="cls-8" x1="24.11" y1="70.75" x2="20.09" y2="70.75"/>
  <polyline class="cls-8" points="24.11 70.75 24.11 68.11 20.09 68.11 20.09 70.75"/>
  <line class="cls-8" x1="24.11" y1="91.27" x2="20.09" y2="91.27"/>
  <polyline class="cls-8" points="24.11 91.27 24.11 93.97 20.09 93.97 20.09 91.27"/>
  <line class="cls-8" x1="20.09" y1="114.49" x2="20.09" y2="117.13"/>
  <polyline class="cls-8" points="20.09 117.13 20.09 114.49 24.11 114.49 24.11 117.13 20.09 117.13"/>
  <line class="cls-8" x1="130.37" y1="22.51" x2="130.37" y2="23.89"/>
  <line class="cls-8" x1="149.75" y1="109.15" x2="147.47" y2="109.15"/>
  <line class="cls-8" x1="151.97" y1="123.61" x2="147.47" y2="123.61"/>
  <line class="cls-8" x1="152.03" y1="109.15" x2="152.03" y2="114.67"/>
  <line class="cls-8" x1="152.03" y1="116.89" x2="151.97" y2="123.61"/>
  <polyline class="cls-8" points="147.47 123.61 147.47 114.67 147.47 109.15"/>
  <line class="cls-8" x1="119.57" y1="109.15" x2="124.13" y2="109.15"/>
  <line class="cls-8" x1="121.49" y1="122.47" x2="124.13" y2="122.47"/>
  <line class="cls-8" x1="119.57" y1="109.15" x2="119.57" y2="114.67"/>
  <line class="cls-8" x1="130.37" y1="19.57" x2="19.25" y2="19.57"/>
  <polyline class="cls-8" points="153.89 19.57 152.39 18.07 150.95 19.57"/>
  <line class="cls-8" x1="141.41" y1="11.47" x2="139.91" y2="10.03"/>
  <polyline class="cls-8" points="141.41 11.47 142.13 10.75 142.85 11.47 144.35 10.03 142.13 7.81 139.91 10.03"/>
  <polyline class="cls-8" points="130.37 19.57 131.87 18.07 133.31 19.57"/>
  <line class="cls-8" x1="211.31" y1="23.89" x2="215.69" y2="19.57"/>
  <line class="cls-8" x1="247.55" y1="23.89" x2="247.55" y2="25.09"/>
  <line class="cls-8" x1="237.65" y1="23.89" x2="233.27" y2="19.57"/>
  <line class="cls-8" x1="170.09" y1="23.89" x2="173.87" y2="20.11"/>
  <line class="cls-8" x1="195.29" y1="23.89" x2="191.51" y2="20.11"/>
  <line class="cls-8" x1="247.55" y1="23.89" x2="237.65" y2="23.89"/>
  <line class="cls-8" x1="211.31" y1="23.89" x2="195.29" y2="23.89"/>
  <line class="cls-8" x1="247.55" y1="25.09" x2="249.77" y2="25.09"/>
  <line class="cls-8" x1="247.55" y1="113.77" x2="249.77" y2="113.77"/>
  <polyline class="cls-8" points="247.55 113.77 247.55 117.85 251.51 117.85"/>
  <line class="cls-8" x1="249.77" y1="113.77" x2="249.77" y2="25.09"/>
  <line class="cls-8" x1="253.37" y1="19.57" x2="236.21" y2="19.57"/>
  <polyline class="cls-8" points="223.73 11.47 224.45 10.75 225.23 11.47 226.67 10.03 224.45 7.81"/>
  <polyline class="cls-8" points="212.75 19.57 214.19 18.07 215.69 19.57"/>
  <polyline class="cls-8" points="223.73 11.47 222.29 10.03 224.45 7.81"/>
  <polyline class="cls-8" points="236.21 19.57 234.77 18.07 233.27 19.57"/>
  <line class="cls-8" x1="193.91" y1="19.57" x2="192.95" y2="18.67"/>
  <line class="cls-8" x1="180.53" y1="10.57" x2="182.69" y2="8.35"/>
  <line class="cls-8" x1="183.41" y1="12.07" x2="184.91" y2="10.57"/>
  <line class="cls-8" x1="181.97" y1="12.07" x2="180.53" y2="10.57"/>
  <line class="cls-8" x1="173.87" y1="20.11" x2="172.43" y2="18.67"/>
  <line class="cls-8" x1="191.51" y1="20.11" x2="192.95" y2="18.67"/>
  <line class="cls-8" x1="184.91" y1="10.57" x2="182.69" y2="8.35"/>
  <line class="cls-8" x1="171.53" y1="19.57" x2="172.43" y2="18.67"/>
  <line class="cls-8" x1="212.75" y1="19.57" x2="193.91" y2="19.57"/>
  <line class="cls-8" x1="247.55" y1="462.49" x2="152.15" y2="462.49"/>
  <line class="cls-8" x1="247.55" y1="325.39" x2="152.03" y2="325.39"/>
  <line class="cls-8" x1="247.55" y1="323.65" x2="196.91" y2="323.65"/>
  <line class="cls-8" x1="195.35" y1="323.65" x2="152.03" y2="323.65"/>
  <line class="cls-8" x1="150.17" y1="372.73" x2="152.03" y2="372.73"/>
  <line class="cls-8" x1="150.17" y1="359.47" x2="152.03" y2="359.47"/>
  <line class="cls-8" x1="152.03" y1="372.73" x2="152.03" y2="387.37"/>
  <line class="cls-8" x1="150.17" y1="372.73" x2="150.17" y2="387.37"/>
  <line class="cls-8" x1="119.57" y1="300.19" x2="24.11" y2="300.19"/>
  <line class="cls-8" x1="119.69" y1="302.35" x2="24.11" y2="302.35"/>
  <line class="cls-8" x1="152.03" y1="210.01" x2="247.55" y2="210.01"/>
  <line class="cls-8" x1="151.43" y1="208.45" x2="195.35" y2="208.45"/>
  <line class="cls-8" x1="196.91" y1="208.45" x2="247.55" y2="208.45"/>
  <line class="cls-8" x1="119.57" y1="154.63" x2="121.49" y2="154.63"/>
  <line class="cls-8" x1="119.57" y1="141.43" x2="121.49" y2="141.43"/>
  <line class="cls-8" x1="119.57" y1="116.89" x2="96.23" y2="116.89"/>
  <line class="cls-8" x1="94.31" y1="116.89" x2="24.11" y2="116.89"/>
  <polyline class="cls-8" points="119.57 114.67 91.85 114.67 24.11 114.67"/>
  <line class="cls-8" x1="121.49" y1="215.23" x2="121.49" y2="270.07"/>
  <polyline class="cls-8" points="119.57 163.27 119.57 270.07 121.49 270.07"/>
  <polyline class="cls-8" points="119.57 300.19 119.57 283.27 121.49 283.27 121.49 294.61"/>
  <line class="cls-8" x1="155.27" y1="23.89" x2="150.95" y2="19.57"/>
  <line class="cls-8" x1="109.85" y1="754.69" x2="109.85" y2="761.83"/>
  <g id="Stairs1">
    <rect class="cls-9" x="81.05" y="719.59" width="46.8" height="42.24"/>
    <line class="cls-8" x1="127.91" y1="741.85" x2="81.05" y2="741.85"/>
    <line class="cls-8" x1="127.91" y1="739.51" x2="81.05" y2="739.51"/>
    <line class="cls-8" x1="127.91" y1="740.17" x2="81.05" y2="740.17"/>
    <line class="cls-8" x1="127.91" y1="741.19" x2="81.05" y2="741.19"/>
    <line class="cls-8" x1="81.05" y1="741.85" x2="81.05" y2="719.59"/>
    <line class="cls-8" x1="88.25" y1="739.51" x2="88.25" y2="719.59"/>
    <line class="cls-8" x1="84.65" y1="739.51" x2="84.65" y2="719.59"/>
    <line class="cls-8" x1="124.31" y1="739.51" x2="124.31" y2="719.59"/>
    <line class="cls-8" x1="127.91" y1="740.17" x2="127.91" y2="717.55"/>
    <line class="cls-8" x1="120.71" y1="739.51" x2="120.71" y2="719.59"/>
    <line class="cls-8" x1="117.05" y1="739.51" x2="117.05" y2="719.59"/>
    <line class="cls-8" x1="109.85" y1="739.51" x2="109.85" y2="719.59"/>
    <line class="cls-8" x1="113.45" y1="739.51" x2="113.45" y2="719.59"/>
    <line class="cls-8" x1="106.25" y1="739.51" x2="106.25" y2="719.59"/>
    <line class="cls-8" x1="91.85" y1="739.51" x2="91.85" y2="719.59"/>
    <line class="cls-8" x1="99.05" y1="739.51" x2="99.05" y2="719.59"/>
    <line class="cls-8" x1="95.45" y1="739.51" x2="95.45" y2="719.59"/>
    <line class="cls-8" x1="102.65" y1="739.51" x2="102.65" y2="719.59"/>
    <line class="cls-8" x1="105.23" y1="741.85" x2="112.43" y2="761.83"/>
    <line class="cls-8" x1="110.81" y1="741.85" x2="118.01" y2="761.83"/>
    <line class="cls-8" x1="117.05" y1="741.85" x2="117.05" y2="759.25"/>
    <line class="cls-8" x1="120.71" y1="741.85" x2="120.71" y2="761.83"/>
    <line class="cls-8" x1="124.31" y1="741.85" x2="124.31" y2="761.83"/>
    <line class="cls-8" x1="113.45" y1="741.85" x2="113.45" y2="749.29"/>
    <line class="cls-8" x1="106.25" y1="744.73" x2="106.25" y2="761.83"/>
    <line class="cls-8" x1="102.65" y1="741.85" x2="102.65" y2="761.83"/>
    <line class="cls-8" x1="95.45" y1="741.85" x2="95.45" y2="761.83"/>
    <line class="cls-8" x1="99.05" y1="741.85" x2="99.05" y2="761.83"/>
    <line class="cls-8" x1="84.65" y1="741.85" x2="84.65" y2="761.83"/>
    <line class="cls-8" x1="81.05" y1="741.85" x2="81.05" y2="761.83"/>
    <line class="cls-8" x1="88.25" y1="741.85" x2="88.25" y2="761.83"/>
    <line class="cls-8" x1="91.85" y1="741.85" x2="91.85" y2="761.83"/>
    <line class="cls-8" x1="81.05" y1="739.81" x2="81.05" y2="761.83"/>
    <line class="cls-8" x1="127.91" y1="739.51" x2="127.91" y2="761.83"/>
  </g>
  <line class="cls-8" x1="204.47" y1="162.37" x2="204.47" y2="154.87"/>
  <polyline class="cls-8" points="250.97 164.17 253.37 164.17 253.43 138.37"/>
  <line class="cls-8" x1="247.55" y1="138.37" x2="247.55" y2="164.17"/>
  <line class="cls-8" x1="247.55" y1="116.89" x2="152.03" y2="116.89"/>
  <polyline class="cls-8" points="247.55 114.67 222.83 114.67 152.03 114.67"/>
  <line class="cls-8" x1="251.51" y1="117.85" x2="253.37" y2="117.85"/>
  <line class="cls-8" x1="247.55" y1="138.37" x2="253.43" y2="138.37"/>
  <g id="Stairs2">
    <rect class="cls-9" x="185.39" y="116.89" width="42.24" height="45.48"/>
    <line class="cls-8" x1="185.21" y1="162.37" x2="185.21" y2="116.89"/>
    <line class="cls-8" x1="192.89" y1="116.89" x2="192.89" y2="137.95"/>
    <line class="cls-8" x1="189.05" y1="116.89" x2="189.05" y2="137.95"/>
    <line class="cls-8" x1="200.63" y1="116.89" x2="200.63" y2="137.95"/>
    <line class="cls-8" x1="196.79" y1="116.89" x2="196.79" y2="137.95"/>
    <line class="cls-8" x1="219.89" y1="116.89" x2="219.89" y2="137.95"/>
    <line class="cls-8" x1="223.79" y1="116.89" x2="223.79" y2="137.95"/>
    <line class="cls-8" x1="227.63" y1="116.89" x2="227.63" y2="137.95"/>
    <line class="cls-8" x1="212.21" y1="116.89" x2="212.21" y2="137.95"/>
    <line class="cls-8" x1="208.37" y1="116.89" x2="208.37" y2="137.95"/>
    <line class="cls-8" x1="216.05" y1="116.89" x2="216.05" y2="137.95"/>
    <line class="cls-8" x1="204.47" y1="116.89" x2="204.47" y2="137.95"/>
    <line class="cls-8" x1="227.63" y1="140.71" x2="185.21" y2="140.71"/>
    <line class="cls-8" x1="227.63" y1="137.41" x2="185.21" y2="137.41"/>
    <line class="cls-8" x1="227.09" y1="137.95" x2="185.75" y2="137.95"/>
    <line class="cls-8" x1="227.09" y1="140.17" x2="185.75" y2="140.17"/>
    <line class="cls-8" x1="185.75" y1="140.17" x2="185.75" y2="137.95"/>
    <line class="cls-8" x1="189.05" y1="162.37" x2="189.05" y2="140.17"/>
    <line class="cls-8" x1="192.89" y1="162.37" x2="192.89" y2="140.17"/>
    <line class="cls-8" x1="196.79" y1="162.37" x2="196.79" y2="140.17"/>
    <line class="cls-8" x1="200.63" y1="149.35" x2="200.63" y2="140.71"/>
    <line class="cls-8" x1="212.21" y1="162.37" x2="212.21" y2="140.17"/>
    <line class="cls-8" x1="216.05" y1="162.37" x2="216.05" y2="140.17"/>
    <line class="cls-8" x1="208.37" y1="162.37" x2="208.37" y2="140.17"/>
    <line class="cls-8" x1="227.09" y1="137.95" x2="227.09" y2="140.17"/>
    <line class="cls-8" x1="223.79" y1="162.37" x2="223.79" y2="140.17"/>
    <line class="cls-8" x1="227.63" y1="162.37" x2="227.63" y2="139.33"/>
    <line class="cls-8" x1="219.89" y1="162.37" x2="219.89" y2="140.17"/>
    <line class="cls-8" x1="227.63" y1="137.95" x2="227.63" y2="140.17"/>
    <line class="cls-8" x1="197.03" y1="162.37" x2="203.03" y2="140.71"/>
    <line class="cls-8" x1="202.43" y1="162.37" x2="208.43" y2="140.71"/>
  </g>
  <line class="cls-8" x1="128.23" y1="766.75" x2="128.23" y2="761.83"/>
  <polyline class="cls-8" points="150.17 756.01 149.21 756.01 149.21 761.83"/>
  <line class="cls-8" x1="146.75" y1="766.75" x2="146.75" y2="761.83"/>
  <line class="cls-8" x1="128.23" y1="761.83" x2="81.35" y2="761.83"/>
  <polyline class="cls-8" points="128.08 766.75 81.35 766.75 81.35 761.83"/>
  <polyline class="cls-8" points="55.49 766.75 60.83 766.75 60.83 761.83"/>
  <line class="cls-8" x1="152.15" y1="665.65" x2="152.03" y2="665.65"/>
  <line class="cls-8" x1="131.87" y1="18.07" x2="132.35" y2="17.59"/>
  <polyline class="cls-8" points="133.19 19.39 133.67 18.91 132.35 17.59 139.43 10.51"/>
  <line class="cls-8" x1="133.01" y1="18.25" x2="140.09" y2="11.17"/>
  <line class="cls-8" x1="133.67" y1="18.91" x2="140.75" y2="11.83"/>
  <line class="cls-8" x1="139.91" y1="10.03" x2="139.43" y2="10.51"/>
  <polyline class="cls-8" points="141.23 11.35 140.75 11.83 139.43 10.51"/>
  <line class="cls-8" x1="172.43" y1="18.67" x2="172.91" y2="18.19"/>
  <polyline class="cls-8" points="173.75 19.99 174.23 19.51 172.91 18.19 180.05 11.05"/>
  <line class="cls-8" x1="173.57" y1="18.85" x2="180.71" y2="11.71"/>
  <line class="cls-8" x1="174.23" y1="19.51" x2="181.37" y2="12.37"/>
  <line class="cls-8" x1="180.53" y1="10.57" x2="180.05" y2="11.05"/>
  <polyline class="cls-8" points="181.79 11.89 181.37 12.37 180.05 11.05"/>
  <line class="cls-8" x1="214.19" y1="18.07" x2="214.67" y2="17.59"/>
  <polyline class="cls-8" points="215.51 19.39 215.99 18.91 214.67 17.59 221.81 10.51"/>
  <line class="cls-8" x1="215.33" y1="18.25" x2="222.47" y2="11.17"/>
  <line class="cls-8" x1="215.99" y1="18.91" x2="223.13" y2="11.83"/>
  <line class="cls-8" x1="222.29" y1="10.03" x2="221.81" y2="10.51"/>
  <polyline class="cls-8" points="223.61 11.35 223.13 11.83 221.81 10.51"/>
  <polyline class="cls-8" points="183.41 12.07 182.69 11.29 181.97 12.07"/>
  <line class="cls-8" x1="152.39" y1="18.07" x2="151.91" y2="17.59"/>
  <polyline class="cls-8" points="151.07 19.39 150.59 18.91 151.91 17.59 144.83 10.51"/>
  <line class="cls-8" x1="151.25" y1="18.25" x2="144.17" y2="11.17"/>
  <line class="cls-8" x1="150.59" y1="18.91" x2="143.51" y2="11.83"/>
  <line class="cls-8" x1="144.35" y1="10.03" x2="144.83" y2="10.51"/>
  <polyline class="cls-8" points="143.03 11.35 143.51 11.83 144.83 10.51"/>
  <line class="cls-8" x1="192.95" y1="18.67" x2="192.53" y2="18.19"/>
  <polyline class="cls-8" points="191.63 19.99 191.15 19.51 192.53 18.19 185.39 11.05"/>
  <line class="cls-8" x1="191.87" y1="18.85" x2="184.73" y2="11.71"/>
  <line class="cls-8" x1="191.15" y1="19.51" x2="184.07" y2="12.37"/>
  <line class="cls-8" x1="184.91" y1="10.57" x2="185.39" y2="11.05"/>
  <polyline class="cls-8" points="183.59 11.89 184.07 12.37 185.39 11.05"/>
  <line class="cls-8" x1="234.77" y1="18.07" x2="234.29" y2="17.59"/>
  <polyline class="cls-8" points="233.45 19.39 232.97 18.91 234.29 17.59 227.15 10.45"/>
  <line class="cls-8" x1="233.63" y1="18.25" x2="226.49" y2="11.17"/>
  <line class="cls-8" x1="232.97" y1="18.91" x2="225.83" y2="11.83"/>
  <line class="cls-8" x1="226.67" y1="10.03" x2="227.15" y2="10.45"/>
  <polyline class="cls-8" points="225.35 11.35 225.83 11.83 227.15 10.45"/>
  <polyline class="cls-8" points="120.95 141.43 120.95 142.09 107.69 142.09"/>
  <line class="cls-8" x1="119.57" y1="142.75" x2="107.69" y2="142.75"/>
  <line class="cls-8" x1="119.57" y1="141.43" x2="120.95" y2="141.43"/>
  <polyline class="cls-8" points="119.57 153.97 120.95 153.97 120.95 154.63 119.57 154.63 119.57 153.97"/>
  <path class="cls-8" d="m107.73,142.75c1.09,5.93,5.91,10.46,11.9,11.18"/>
  <line class="cls-8" x1="119.57" y1="142.75" x2="119.57" y2="141.43"/>
  <line class="cls-8" x1="107.69" y1="142.09" x2="107.69" y2="142.75"/>
  <polyline class="cls-8" points="120.95 270.07 120.95 270.73 107.69 270.73"/>
  <line class="cls-8" x1="119.57" y1="271.39" x2="107.69" y2="271.39"/>
  <line class="cls-8" x1="119.57" y1="270.07" x2="120.95" y2="270.07"/>
  <polyline class="cls-8" points="119.57 282.61 120.95 282.61 120.95 283.27 119.57 283.27 119.57 282.61"/>
  <path class="cls-8" d="m107.73,271.39c1.09,5.93,5.91,10.46,11.9,11.18"/>
  <line class="cls-8" x1="119.57" y1="271.39" x2="119.57" y2="270.07"/>
  <line class="cls-8" x1="107.69" y1="270.73" x2="107.69" y2="271.39"/>
  <polyline class="cls-8" points="121.07 403.69 121.07 404.35 107.81 404.35"/>
  <line class="cls-8" x1="119.75" y1="405.01" x2="107.81" y2="405.01"/>
  <line class="cls-8" x1="119.69" y1="403.69" x2="121.07" y2="403.69"/>
  <polyline class="cls-8" points="119.69 416.23 121.07 416.23 121.07 416.89 119.69 416.89 119.69 416.23"/>
  <path class="cls-8" d="m107.85,405.01c1.09,5.93,5.91,10.46,11.9,11.18"/>
  <line class="cls-8" x1="119.75" y1="405.01" x2="119.69" y2="403.69"/>
  <line class="cls-8" x1="107.81" y1="404.35" x2="107.81" y2="405.01"/>
  <polyline class="cls-8" points="121.07 558.37 121.07 559.03 107.81 559.03"/>
  <line class="cls-8" x1="119.75" y1="559.69" x2="107.81" y2="559.69"/>
  <line class="cls-8" x1="119.69" y1="558.37" x2="121.07" y2="558.37"/>
  <polyline class="cls-8" points="119.69 570.91 121.07 570.91 121.07 571.57 119.69 571.57 119.69 570.91"/>
  <path class="cls-8" d="m107.85,559.69c1.09,5.93,5.91,10.46,11.9,11.18"/>
  <line class="cls-8" x1="119.75" y1="559.69" x2="119.69" y2="558.37"/>
  <line class="cls-8" x1="107.81" y1="559.03" x2="107.81" y2="559.69"/>
  <polyline class="cls-8" points="59.21 739.45 59.21 738.79 45.95 738.73"/>
  <line class="cls-8" x1="57.89" y1="738.13" x2="45.95" y2="738.07"/>
  <line class="cls-8" x1="57.89" y1="739.45" x2="59.21" y2="739.45"/>
  <polyline class="cls-8" points="57.89 726.91 59.21 726.91 59.21 726.25 57.89 726.25 57.89 726.91"/>
  <path class="cls-8" d="m57.89,726.89c-5.99.72-10.81,5.25-11.9,11.18"/>
  <line class="cls-8" x1="57.89" y1="738.13" x2="57.89" y2="739.45"/>
  <line class="cls-8" x1="45.95" y1="738.73" x2="45.95" y2="738.07"/>
  <polyline class="cls-8" points="150.71 252.07 150.71 252.73 163.97 252.79"/>
  <line class="cls-8" x1="152.03" y1="253.39" x2="163.97" y2="253.45"/>
  <line class="cls-8" x1="152.03" y1="252.07" x2="150.71" y2="252.07"/>
  <polyline class="cls-8" points="152.03 264.61 150.71 264.61 150.71 265.27 152.03 265.27 152.03 264.61"/>
  <path class="cls-8" d="m152.08,264.57c5.99-.72,10.81-5.25,11.9-11.18"/>
  <line class="cls-8" x1="152.03" y1="253.39" x2="152.03" y2="252.07"/>
  <line class="cls-8" x1="163.97" y1="252.79" x2="163.97" y2="253.45"/>
  <polyline class="cls-8" points="150.71 359.47 150.71 360.13 163.97 360.19"/>
  <line class="cls-8" x1="152.03" y1="360.85" x2="163.97" y2="360.85"/>
  <line class="cls-8" x1="152.03" y1="359.47" x2="150.71" y2="359.47"/>
  <polyline class="cls-8" points="152.03 372.01 150.71 372.01 150.71 372.73 152.03 372.73 152.03 372.01"/>
  <path class="cls-8" d="m152.08,371.97c5.99-.72,10.81-5.25,11.9-11.18"/>
  <line class="cls-8" x1="152.03" y1="360.85" x2="152.03" y2="359.47"/>
  <line class="cls-8" x1="163.97" y1="360.19" x2="163.97" y2="360.85"/>
  <polyline class="cls-8" points="150.83 507.67 150.83 508.33 164.09 508.33"/>
  <line class="cls-8" x1="152.15" y1="508.99" x2="164.09" y2="508.99"/>
  <line class="cls-8" x1="152.15" y1="507.67" x2="150.83" y2="507.67"/>
  <polyline class="cls-8" points="152.15 520.21 150.83 520.21 150.83 520.87 152.15 520.87 152.15 520.21"/>
  <path class="cls-8" d="m152.2,520.17c5.99-.72,10.81-5.25,11.9-11.18"/>
  <line class="cls-8" x1="152.15" y1="508.99" x2="152.15" y2="507.67"/>
  <line class="cls-8" x1="164.09" y1="508.33" x2="164.09" y2="508.99"/>
  <polyline class="cls-8" points="150.83 628.09 150.83 628.75 164.09 628.75"/>
  <line class="cls-8" x1="152.15" y1="629.41" x2="164.09" y2="629.41"/>
  <line class="cls-8" x1="152.15" y1="628.09" x2="150.83" y2="628.09"/>
  <polyline class="cls-8" points="152.15 640.63 150.83 640.63 150.83 641.29 152.15 641.29 152.15 640.63"/>
  <path class="cls-8" d="m152.2,640.59c5.99-.72,10.81-5.25,11.9-11.18"/>
  <line class="cls-8" x1="152.15" y1="629.41" x2="152.15" y2="628.09"/>
  <line class="cls-8" x1="164.09" y1="628.75" x2="164.09" y2="629.41"/>
  <polyline class="cls-8" points="150.71 415.57 150.71 414.91 163.97 414.91"/>
  <line class="cls-8" x1="152.03" y1="414.25" x2="163.97" y2="414.25"/>
  <line class="cls-8" x1="152.03" y1="415.57" x2="150.71" y2="415.57"/>
  <polyline class="cls-8" points="152.03 403.03 150.71 403.03 150.71 402.37 152.03 402.37 152.03 403.03"/>
  <path class="cls-8" d="m163.98,414.18c-1.09-5.93-5.91-10.46-11.9-11.18"/>
  <line class="cls-8" x1="152.03" y1="414.25" x2="152.03" y2="415.57"/>
  <line class="cls-8" x1="163.97" y1="414.91" x2="163.97" y2="414.25"/>
  <polyline class="cls-8" points="121.07 478.99 121.07 478.27 107.81 478.27"/>
  <line class="cls-8" x1="119.75" y1="477.61" x2="107.81" y2="477.61"/>
  <line class="cls-8" x1="119.69" y1="478.99" x2="121.07" y2="478.99"/>
  <polyline class="cls-8" points="119.69 466.39 121.07 466.39 121.07 465.73 119.69 465.73 119.69 466.39"/>
  <path class="cls-8" d="m119.75,466.43c-5.99.72-10.81,5.25-11.9,11.18"/>
  <line class="cls-8" x1="119.75" y1="477.61" x2="119.69" y2="478.99"/>
  <line class="cls-8" x1="107.81" y1="478.27" x2="107.81" y2="477.61"/>
  <polyline class="cls-8" points="172.97 551.05 172.97 550.39 159.71 550.39"/>
  <line class="cls-8" x1="171.65" y1="549.73" x2="159.71" y2="549.73"/>
  <line class="cls-8" x1="171.65" y1="551.05" x2="172.97" y2="551.05"/>
  <polyline class="cls-8" points="171.65 538.51 172.97 538.51 172.97 537.85 171.65 537.85 171.65 538.51"/>
  <path class="cls-8" d="m171.65,538.49c-5.99.72-10.81,5.25-11.9,11.18"/>
  <line class="cls-8" x1="171.65" y1="549.73" x2="171.65" y2="551.05"/>
  <line class="cls-8" x1="159.71" y1="550.39" x2="159.71" y2="549.73"/>
  <polyline class="cls-8" points="228.05 532.69 228.71 532.69 228.77 545.95"/>
  <line class="cls-8" x1="229.37" y1="534.07" x2="229.43" y2="545.95"/>
  <line class="cls-8" x1="228.05" y1="534.07" x2="228.05" y2="532.69"/>
  <polyline class="cls-8" points="240.59 534.07 240.59 532.69 241.25 532.69 241.25 534.07 240.59 534.07"/>
  <path class="cls-8" d="m229.43,545.9c5.93-1.09,10.46-5.91,11.18-11.9"/>
  <line class="cls-8" x1="229.37" y1="534.07" x2="228.05" y2="534.07"/>
  <line class="cls-8" x1="228.77" y1="545.95" x2="229.43" y2="545.95"/>
  <polyline class="cls-8" points="150.83 572.23 150.83 571.57 164.09 571.57"/>
  <line class="cls-8" x1="152.15" y1="570.91" x2="164.09" y2="570.91"/>
  <line class="cls-8" x1="152.15" y1="572.23" x2="150.83" y2="572.23"/>
  <polyline class="cls-8" points="152.15 559.69 150.83 559.69 150.83 559.03 152.15 559.03 152.15 559.69"/>
  <path class="cls-8" d="m164.1,570.84c-1.09-5.93-5.91-10.46-11.9-11.18"/>
  <line class="cls-8" x1="152.15" y1="570.91" x2="152.15" y2="572.23"/>
  <line class="cls-8" x1="164.09" y1="571.57" x2="164.09" y2="570.91"/>
  <polyline class="cls-8" points="150.83 551.59 150.83 550.93 164.09 550.87"/>
  <line class="cls-8" x1="152.15" y1="551.59" x2="150.83" y2="551.59"/>
  <polyline class="cls-8" points="152.15 539.05 150.83 539.05 150.83 538.39 152.15 538.39 152.15 539.05"/>
  <line class="cls-8" x1="152.15" y1="550.27" x2="152.15" y2="551.59"/>
  <line class="cls-8" x1="164.09" y1="550.87" x2="164.09" y2="550.21"/>
  <polyline class="cls-8" points="162.17 131.95 150.11 131.95 150.11 131.29"/>
  <polyline class="cls-8" points="151.49 131.29 151.49 132.61 162.17 132.61"/>
  <line class="cls-8" x1="150.11" y1="154.03" x2="162.17" y2="153.97"/>
  <polyline class="cls-8" points="151.49 154.69 151.49 153.31 162.17 153.31"/>
  <polyline class="cls-8" points="151.49 154.69 150.11 154.69 150.11 154.03"/>
  <line class="cls-8" x1="150.11" y1="131.29" x2="151.49" y2="131.29"/>
  <line class="cls-8" x1="162.17" y1="153.31" x2="162.17" y2="153.97"/>
  <line class="cls-8" x1="162.17" y1="131.95" x2="162.17" y2="132.61"/>
  <line class="cls-8" x1="151.97" y1="123.61" x2="152.03" y2="124.27"/>
  <polyline class="cls-8" points="150.11 123.61 150.11 124.27 152.03 124.27"/>
  <line class="cls-8" x1="151.97" y1="124.27" x2="151.97" y2="130.63"/>
  <line class="cls-8" x1="151.07" y1="124.27" x2="151.07" y2="130.63"/>
  <line class="cls-8" x1="150.11" y1="124.27" x2="150.11" y2="130.63"/>
  <line class="cls-8" x1="152.03" y1="131.29" x2="151.97" y2="130.63"/>
  <polyline class="cls-8" points="152.03 131.29 150.11 131.29 150.11 130.63 151.97 130.63"/>
  <line class="cls-8" x1="152.03" y1="154.69" x2="152.03" y2="155.35"/>
  <polyline class="cls-8" points="150.11 154.69 150.11 155.35 152.03 155.35"/>
  <line class="cls-8" x1="151.97" y1="155.35" x2="151.97" y2="161.71"/>
  <line class="cls-8" x1="151.07" y1="155.35" x2="151.07" y2="161.71"/>
  <line class="cls-8" x1="150.11" y1="155.35" x2="150.11" y2="161.71"/>
  <line class="cls-8" x1="152.03" y1="162.37" x2="151.97" y2="161.71"/>
  <line class="cls-8" x1="150.11" y1="162.37" x2="150.11" y2="161.71"/>
  <line class="cls-8" x1="152.03" y1="154.69" x2="150.11" y2="154.69"/>
  <line class="cls-8" x1="151.97" y1="161.71" x2="150.11" y2="161.71"/>
  <polyline class="cls-8" points="146.81 689.65 146.81 677.65 147.47 677.65"/>
  <polyline class="cls-8" points="147.47 678.97 146.15 678.97 146.15 689.65"/>
  <line class="cls-8" x1="124.79" y1="677.65" x2="124.79" y2="689.65"/>
  <polyline class="cls-8" points="124.13 678.97 125.45 678.97 125.45 689.65"/>
  <polyline class="cls-8" points="124.13 678.97 124.13 677.65 124.79 677.65"/>
  <line class="cls-8" x1="147.47" y1="677.65" x2="147.47" y2="678.97"/>
  <line class="cls-8" x1="125.45" y1="689.65" x2="124.79" y2="689.65"/>
  <line class="cls-8" x1="146.81" y1="689.65" x2="146.15" y2="689.65"/>
  <line class="cls-8" x1="81.35" y1="765.25" x2="80.69" y2="765.25"/>
  <polyline class="cls-8" points="81.35 763.33 80.69 763.33 80.69 765.25 61.49 765.19"/>
  <line class="cls-8" x1="80.69" y1="764.29" x2="61.49" y2="764.29"/>
  <line class="cls-8" x1="80.69" y1="763.33" x2="61.49" y2="763.33"/>
  <line class="cls-8" x1="60.83" y1="765.25" x2="61.49" y2="765.19"/>
  <polyline class="cls-8" points="60.83 763.33 61.49 763.33 61.49 765.19"/>
  <line class="cls-8" x1="146.75" y1="765.25" x2="146.09" y2="765.25"/>
  <polyline class="cls-8" points="146.75 763.33 146.13 763.33 146.13 765.25 128.23 765.19"/>
  <line class="cls-8" x1="146.13" y1="764.29" x2="128.23" y2="764.29"/>
  <line class="cls-8" x1="146.13" y1="763.33" x2="128.23" y2="763.33"/>
  <line class="cls-8" x1="20.93" y1="44.89" x2="20.93" y2="44.23"/>
  <polyline class="cls-8" points="22.79 44.89 22.79 44.23 20.93 44.23 20.93 25.09"/>
  <line class="cls-8" x1="21.83" y1="44.23" x2="21.83" y2="25.09"/>
  <line class="cls-8" x1="22.79" y1="44.23" x2="22.79" y2="25.09"/>
  <line class="cls-8" x1="20.93" y1="24.43" x2="20.93" y2="25.09"/>
  <polyline class="cls-8" points="22.79 24.37 22.79 25.09 20.93 25.09"/>
  <line class="cls-8" x1="20.93" y1="68.11" x2="20.93" y2="67.45"/>
  <polyline class="cls-8" points="22.79 68.11 22.79 67.45 20.93 67.45 20.93 48.25"/>
  <line class="cls-8" x1="21.83" y1="67.45" x2="21.83" y2="48.25"/>
  <line class="cls-8" x1="22.79" y1="67.45" x2="22.79" y2="48.25"/>
  <line class="cls-8" x1="20.93" y1="47.59" x2="20.93" y2="48.25"/>
  <polyline class="cls-8" points="22.79 47.59 22.79 48.25 20.93 48.25"/>
  <line class="cls-8" x1="20.93" y1="91.27" x2="20.93" y2="90.61"/>
  <polyline class="cls-8" points="22.79 91.27 22.79 90.61 20.93 90.61 20.93 71.47"/>
  <line class="cls-8" x1="21.83" y1="90.61" x2="21.83" y2="71.47"/>
  <line class="cls-8" x1="22.79" y1="90.61" x2="22.79" y2="71.41"/>
  <line class="cls-8" x1="20.93" y1="70.75" x2="20.93" y2="71.47"/>
  <polyline class="cls-8" points="22.79 70.75 22.79 71.41 20.93 71.47"/>
  <line class="cls-8" x1="20.93" y1="114.49" x2="20.93" y2="113.83"/>
  <polyline class="cls-8" points="22.79 114.49 22.79 113.83 20.93 113.83 20.93 94.63"/>
  <line class="cls-8" x1="21.83" y1="113.83" x2="21.83" y2="94.63"/>
  <line class="cls-8" x1="22.79" y1="113.83" x2="22.79" y2="94.63"/>
  <line class="cls-8" x1="20.93" y1="93.97" x2="20.93" y2="94.63"/>
  <polyline class="cls-8" points="22.79 93.97 22.79 94.63 20.93 94.63"/>
  <line class="cls-8" x1="20.93" y1="137.65" x2="20.93" y2="136.99"/>
  <polyline class="cls-8" points="22.79 137.65 22.79 136.99 20.93 136.99 20.93 117.79"/>
  <line class="cls-8" x1="21.83" y1="136.99" x2="21.83" y2="117.79"/>
  <line class="cls-8" x1="22.79" y1="136.99" x2="22.79" y2="117.79"/>
  <line class="cls-8" x1="20.93" y1="117.13" x2="20.93" y2="117.79"/>
  <polyline class="cls-8" points="22.79 117.13 22.79 117.79 20.93 117.79"/>
  <line class="cls-8" x1="20.93" y1="160.87" x2="20.93" y2="160.21"/>
  <polyline class="cls-8" points="22.79 160.87 22.79 160.21 20.93 160.21 20.93 141.01"/>
  <line class="cls-8" x1="21.83" y1="160.21" x2="21.83" y2="141.01"/>
  <line class="cls-8" x1="22.79" y1="160.21" x2="22.79" y2="141.01"/>
  <line class="cls-8" x1="20.93" y1="140.35" x2="20.93" y2="141.01"/>
  <polyline class="cls-8" points="22.79 140.35 22.79 141.01 20.93 141.01"/>
  <line class="cls-8" x1="20.93" y1="184.03" x2="20.93" y2="183.37"/>
  <polyline class="cls-8" points="22.79 184.03 22.79 183.37 20.93 183.37 20.93 164.17"/>
  <line class="cls-8" x1="21.83" y1="183.37" x2="21.83" y2="164.17"/>
  <line class="cls-8" x1="22.79" y1="183.37" x2="22.79" y2="164.17"/>
  <line class="cls-8" x1="20.93" y1="163.51" x2="20.93" y2="164.17"/>
  <polyline class="cls-8" points="22.79 163.51 22.79 164.17 20.93 164.17"/>
  <line class="cls-8" x1="20.93" y1="207.25" x2="20.93" y2="206.53"/>
  <polyline class="cls-8" points="22.79 207.25 22.79 206.53 20.93 206.53 20.93 187.39"/>
  <line class="cls-8" x1="21.83" y1="206.53" x2="21.83" y2="187.39"/>
  <line class="cls-8" x1="22.79" y1="206.53" x2="22.79" y2="187.39"/>
  <line class="cls-8" x1="20.93" y1="186.73" x2="20.93" y2="187.39"/>
  <polyline class="cls-8" points="22.79 186.73 22.79 187.39 20.93 187.39"/>
  <line class="cls-8" x1="20.93" y1="230.41" x2="20.93" y2="229.75"/>
  <polyline class="cls-8" points="22.79 230.41 22.79 229.75 20.93 229.75 20.93 210.55"/>
  <line class="cls-8" x1="21.83" y1="229.75" x2="21.83" y2="210.55"/>
  <line class="cls-8" x1="22.79" y1="229.75" x2="22.79" y2="210.55"/>
  <line class="cls-8" x1="20.93" y1="209.89" x2="20.93" y2="210.55"/>
  <polyline class="cls-8" points="22.79 209.89 22.79 210.55 20.93 210.55"/>
  <line class="cls-8" x1="20.93" y1="253.63" x2="20.93" y2="252.91"/>
  <polyline class="cls-8" points="22.79 253.57 22.79 252.91 20.93 252.91 20.93 233.77"/>
  <line class="cls-8" x1="21.83" y1="252.91" x2="21.83" y2="233.77"/>
  <line class="cls-8" x1="22.79" y1="252.91" x2="22.79" y2="233.77"/>
  <line class="cls-8" x1="20.93" y1="233.11" x2="20.93" y2="233.77"/>
  <polyline class="cls-8" points="22.79 233.11 22.79 233.77 20.93 233.77"/>
  <line class="cls-8" x1="20.93" y1="276.79" x2="20.93" y2="276.13"/>
  <polyline class="cls-8" points="22.79 276.79 22.79 276.13 20.93 276.13 20.93 256.93"/>
  <line class="cls-8" x1="21.83" y1="276.13" x2="21.83" y2="256.93"/>
  <line class="cls-8" x1="22.79" y1="276.13" x2="22.79" y2="256.93"/>
  <line class="cls-8" x1="20.93" y1="256.27" x2="20.93" y2="256.93"/>
  <polyline class="cls-8" points="22.79 256.27 22.79 256.93 20.93 256.93"/>
  <line class="cls-8" x1="20.93" y1="299.95" x2="20.93" y2="299.29"/>
  <polyline class="cls-8" points="22.79 299.95 22.79 299.29 20.93 299.29 20.93 280.15"/>
  <line class="cls-8" x1="21.83" y1="299.29" x2="21.83" y2="280.15"/>
  <line class="cls-8" x1="22.79" y1="299.29" x2="22.79" y2="280.15"/>
  <line class="cls-8" x1="20.93" y1="279.43" x2="20.93" y2="280.15"/>
  <polyline class="cls-8" points="22.79 279.43 22.79 280.15 20.93 280.15"/>
  <line class="cls-8" x1="20.93" y1="323.17" x2="20.93" y2="322.51"/>
  <polyline class="cls-8" points="22.79 323.17 22.79 322.51 20.93 322.51 20.93 303.31"/>
  <line class="cls-8" x1="21.83" y1="322.51" x2="21.83" y2="303.31"/>
  <line class="cls-8" x1="22.79" y1="322.51" x2="22.79" y2="303.31"/>
  <line class="cls-8" x1="20.93" y1="302.65" x2="20.93" y2="303.31"/>
  <polyline class="cls-8" points="22.79 302.65 22.79 303.31 20.93 303.31"/>
  <line class="cls-8" x1="20.93" y1="346.33" x2="20.93" y2="345.67"/>
  <polyline class="cls-8" points="22.79 346.33 22.79 345.67 20.93 345.67 20.93 326.47"/>
  <line class="cls-8" x1="21.83" y1="345.67" x2="21.83" y2="326.47"/>
  <line class="cls-8" x1="22.79" y1="345.67" x2="22.79" y2="326.47"/>
  <line class="cls-8" x1="20.93" y1="325.81" x2="20.93" y2="326.47"/>
  <polyline class="cls-8" points="22.79 325.81 22.79 326.47 20.93 326.47"/>
  <line class="cls-8" x1="20.93" y1="369.55" x2="20.93" y2="368.89"/>
  <polyline class="cls-8" points="22.79 369.55 22.79 368.89 20.93 368.89 20.93 349.69"/>
  <line class="cls-8" x1="21.83" y1="368.89" x2="21.83" y2="349.69"/>
  <line class="cls-8" x1="22.79" y1="368.89" x2="22.79" y2="349.69"/>
  <line class="cls-8" x1="20.93" y1="349.03" x2="20.93" y2="349.69"/>
  <polyline class="cls-8" points="22.79 349.03 22.79 349.69 20.93 349.69"/>
  <line class="cls-8" x1="20.93" y1="392.71" x2="20.93" y2="392.05"/>
  <polyline class="cls-8" points="22.79 392.71 22.79 392.05 20.93 392.05 20.93 372.85"/>
  <line class="cls-8" x1="21.83" y1="392.05" x2="21.83" y2="372.85"/>
  <line class="cls-8" x1="22.79" y1="392.05" x2="22.79" y2="372.85"/>
  <line class="cls-8" x1="20.93" y1="372.19" x2="20.93" y2="372.85"/>
  <polyline class="cls-8" points="22.79 372.19 22.79 372.85 20.93 372.85"/>
  <line class="cls-8" x1="20.93" y1="415.93" x2="20.93" y2="415.27"/>
  <polyline class="cls-8" points="22.79 415.93 22.79 415.21 20.93 415.27 20.93 396.07"/>
  <line class="cls-8" x1="21.83" y1="415.27" x2="21.83" y2="396.07"/>
  <line class="cls-8" x1="22.79" y1="415.21" x2="22.79" y2="396.07"/>
  <line class="cls-8" x1="20.93" y1="395.41" x2="20.93" y2="396.07"/>
  <polyline class="cls-8" points="22.79 395.41 22.79 396.07 20.93 396.07"/>
  <line class="cls-8" x1="20.93" y1="439.09" x2="20.93" y2="438.43"/>
  <polyline class="cls-8" points="22.79 439.09 22.79 438.43 20.93 438.43 20.93 419.23"/>
  <line class="cls-8" x1="21.83" y1="438.43" x2="21.83" y2="419.23"/>
  <line class="cls-8" x1="22.79" y1="438.43" x2="22.79" y2="419.23"/>
  <line class="cls-8" x1="20.93" y1="418.57" x2="20.93" y2="419.23"/>
  <polyline class="cls-8" points="22.79 418.57 22.79 419.23 20.93 419.23"/>
  <line class="cls-8" x1="20.93" y1="485.47" x2="20.93" y2="484.81"/>
  <polyline class="cls-8" points="22.79 485.47 22.79 484.81 20.93 484.81 20.93 465.61"/>
  <line class="cls-8" x1="21.83" y1="484.81" x2="21.83" y2="465.61"/>
  <line class="cls-8" x1="22.79" y1="484.81" x2="22.79" y2="465.61"/>
  <line class="cls-8" x1="20.93" y1="464.95" x2="20.93" y2="465.61"/>
  <polyline class="cls-8" points="22.79 464.95 22.79 465.61 20.93 465.61"/>
  <line class="cls-8" x1="20.93" y1="508.63" x2="20.93" y2="507.97"/>
  <polyline class="cls-8" points="22.79 508.63 22.79 507.97 20.93 507.97 20.93 488.83"/>
  <line class="cls-8" x1="21.83" y1="507.97" x2="21.83" y2="488.83"/>
  <line class="cls-8" x1="22.79" y1="507.97" x2="22.79" y2="488.83"/>
  <line class="cls-8" x1="20.93" y1="488.17" x2="20.93" y2="488.83"/>
  <polyline class="cls-8" points="22.79 488.11 22.79 488.83 20.93 488.83"/>
  <line class="cls-8" x1="20.93" y1="531.85" x2="20.93" y2="531.19"/>
  <polyline class="cls-8" points="22.79 531.85 22.79 531.19 20.93 531.19 20.93 511.99"/>
  <line class="cls-8" x1="21.83" y1="531.19" x2="21.83" y2="511.99"/>
  <line class="cls-8" x1="22.79" y1="531.19" x2="22.79" y2="511.99"/>
  <line class="cls-8" x1="20.93" y1="511.33" x2="20.93" y2="511.99"/>
  <polyline class="cls-8" points="22.79 511.33 22.79 511.99 20.93 511.99"/>
  <line class="cls-8" x1="20.93" y1="555.01" x2="20.93" y2="554.35"/>
  <polyline class="cls-8" points="22.79 555.01 22.79 554.35 20.93 554.35 20.93 535.21"/>
  <line class="cls-8" x1="21.83" y1="554.35" x2="21.83" y2="535.21"/>
  <line class="cls-8" x1="22.79" y1="554.35" x2="22.79" y2="535.15"/>
  <line class="cls-8" x1="20.93" y1="534.49" x2="20.93" y2="535.21"/>
  <polyline class="cls-8" points="22.79 534.49 22.79 535.15 20.93 535.21"/>
  <line class="cls-8" x1="20.93" y1="578.23" x2="20.93" y2="577.57"/>
  <polyline class="cls-8" points="22.79 578.23 22.79 577.57 20.93 577.57 20.93 558.37"/>
  <line class="cls-8" x1="21.83" y1="577.57" x2="21.83" y2="558.37"/>
  <line class="cls-8" x1="22.79" y1="577.57" x2="22.79" y2="558.37"/>
  <line class="cls-8" x1="20.93" y1="557.71" x2="20.93" y2="558.37"/>
  <polyline class="cls-8" points="22.79 557.71 22.79 558.37 20.93 558.37"/>
  <line class="cls-8" x1="20.93" y1="601.39" x2="20.93" y2="600.73"/>
  <polyline class="cls-8" points="22.79 601.39 22.79 600.73 20.93 600.73 20.93 581.53"/>
  <line class="cls-8" x1="21.83" y1="600.73" x2="21.83" y2="581.53"/>
  <line class="cls-8" x1="22.79" y1="600.73" x2="22.79" y2="581.53"/>
  <line class="cls-8" x1="20.93" y1="580.87" x2="20.93" y2="581.53"/>
  <polyline class="cls-8" points="22.79 580.87 22.79 581.53 20.93 581.53"/>
  <line class="cls-8" x1="20.93" y1="624.61" x2="20.93" y2="623.95"/>
  <polyline class="cls-8" points="22.79 624.61 22.79 623.95 20.93 623.95 20.93 604.75"/>
  <line class="cls-8" x1="21.83" y1="623.95" x2="21.83" y2="604.75"/>
  <line class="cls-8" x1="22.79" y1="623.95" x2="22.79" y2="604.75"/>
  <line class="cls-8" x1="20.93" y1="604.09" x2="20.93" y2="604.75"/>
  <polyline class="cls-8" points="22.79 604.09 22.79 604.75 20.93 604.75"/>
  <line class="cls-8" x1="20.93" y1="647.77" x2="20.93" y2="647.11"/>
  <polyline class="cls-8" points="22.79 647.77 22.79 647.11 20.93 647.11 20.93 627.91"/>
  <line class="cls-8" x1="21.83" y1="647.11" x2="21.83" y2="627.91"/>
  <line class="cls-8" x1="22.79" y1="647.11" x2="22.79" y2="627.91"/>
  <line class="cls-8" x1="20.93" y1="627.25" x2="20.93" y2="627.91"/>
  <polyline class="cls-8" points="22.79 627.25 22.79 627.91 20.93 627.91"/>
  <line class="cls-8" x1="20.93" y1="670.99" x2="20.93" y2="670.33"/>
  <polyline class="cls-8" points="22.79 670.99 22.79 670.27 20.93 670.33 20.93 651.13"/>
  <line class="cls-8" x1="21.83" y1="670.27" x2="21.83" y2="651.13"/>
  <line class="cls-8" x1="22.79" y1="670.27" x2="22.79" y2="651.13"/>
  <line class="cls-8" x1="20.93" y1="650.47" x2="20.93" y2="651.13"/>
  <polyline class="cls-8" points="22.79 650.47 22.79 651.13 20.93 651.13"/>
  <line class="cls-8" x1="250.73" y1="138.37" x2="250.73" y2="137.71"/>
  <polyline class="cls-8" points="252.59 138.37 252.59 137.71 250.73 137.71 250.73 118.51"/>
  <line class="cls-8" x1="251.69" y1="137.71" x2="251.69" y2="118.51"/>
  <line class="cls-8" x1="252.59" y1="137.71" x2="252.59" y2="118.51"/>
  <line class="cls-8" x1="250.73" y1="117.85" x2="250.73" y2="118.51"/>
  <polyline class="cls-8" points="252.59 117.85 252.59 118.51 250.73 118.51"/>
  <line class="cls-8" x1="249.11" y1="184.69" x2="249.11" y2="184.03"/>
  <polyline class="cls-8" points="250.97 184.69 250.97 184.03 249.11 184.03 249.11 164.83"/>
  <line class="cls-8" x1="250.07" y1="184.03" x2="250.07" y2="164.83"/>
  <line class="cls-8" x1="250.97" y1="184.03" x2="250.97" y2="164.83"/>
  <line class="cls-8" x1="249.11" y1="164.17" x2="249.11" y2="164.83"/>
  <polyline class="cls-8" points="250.97 164.17 250.97 164.83 249.11 164.83"/>
  <line class="cls-8" x1="249.11" y1="207.91" x2="249.11" y2="207.25"/>
  <polyline class="cls-8" points="250.97 207.91 250.97 207.25 249.11 207.25 249.11 188.05"/>
  <line class="cls-8" x1="250.07" y1="207.25" x2="250.07" y2="188.05"/>
  <line class="cls-8" x1="250.97" y1="207.25" x2="250.97" y2="188.05"/>
  <line class="cls-8" x1="249.11" y1="187.39" x2="249.11" y2="188.05"/>
  <polyline class="cls-8" points="250.97 187.39 250.97 188.05 249.11 188.05"/>
  <line class="cls-8" x1="249.11" y1="253.63" x2="249.11" y2="252.91"/>
  <polyline class="cls-8" points="250.97 253.57 250.97 252.91 249.11 252.91 249.11 233.77"/>
  <line class="cls-8" x1="250.07" y1="252.91" x2="250.07" y2="233.77"/>
  <line class="cls-8" x1="250.97" y1="252.91" x2="250.97" y2="233.77"/>
  <line class="cls-8" x1="249.11" y1="233.11" x2="249.11" y2="233.77"/>
  <polyline class="cls-8" points="250.97 233.11 250.97 233.77 249.11 233.77"/>
  <line class="cls-8" x1="249.11" y1="276.79" x2="249.11" y2="276.13"/>
  <polyline class="cls-8" points="250.97 276.79 250.97 276.13 249.11 276.13 249.11 256.93"/>
  <line class="cls-8" x1="250.07" y1="276.13" x2="250.07" y2="256.93"/>
  <line class="cls-8" x1="250.97" y1="276.13" x2="250.97" y2="256.93"/>
  <line class="cls-8" x1="249.11" y1="256.27" x2="249.11" y2="256.93"/>
  <polyline class="cls-8" points="250.97 256.27 250.97 256.93 249.11 256.93"/>
  <line class="cls-8" x1="249.11" y1="299.95" x2="249.11" y2="299.29"/>
  <polyline class="cls-8" points="250.97 299.95 250.97 299.29 249.11 299.29 249.11 280.15"/>
  <line class="cls-8" x1="250.07" y1="299.29" x2="250.07" y2="280.15"/>
  <line class="cls-8" x1="250.97" y1="299.29" x2="250.97" y2="280.15"/>
  <line class="cls-8" x1="249.11" y1="279.43" x2="249.11" y2="280.15"/>
  <polyline class="cls-8" points="250.97 279.43 250.97 280.15 249.11 280.15"/>
  <line class="cls-8" x1="249.11" y1="323.17" x2="249.11" y2="322.51"/>
  <polyline class="cls-8" points="250.97 323.17 250.97 322.51 249.11 322.51 249.11 303.31"/>
  <line class="cls-8" x1="250.07" y1="322.51" x2="250.07" y2="303.31"/>
  <line class="cls-8" x1="250.97" y1="322.51" x2="250.97" y2="303.31"/>
  <line class="cls-8" x1="249.11" y1="302.65" x2="249.11" y2="303.31"/>
  <polyline class="cls-8" points="250.97 302.65 250.97 303.31 249.11 303.31"/>
  <line class="cls-8" x1="249.11" y1="230.41" x2="249.11" y2="229.75"/>
  <polyline class="cls-8" points="250.97 230.41 250.97 229.75 249.11 229.75 249.11 211.21"/>
  <line class="cls-8" x1="250.07" y1="229.75" x2="250.07" y2="211.21"/>
  <line class="cls-8" x1="250.97" y1="229.75" x2="250.97" y2="211.21"/>
  <line class="cls-8" x1="249.11" y1="210.55" x2="249.11" y2="211.21"/>
  <polyline class="cls-8" points="250.97 210.55 251.03 211.21 249.11 211.21"/>
  <line class="cls-8" x1="249.11" y1="346.33" x2="249.11" y2="345.67"/>
  <polyline class="cls-8" points="250.97 346.33 250.97 345.67 249.11 345.67 249.11 326.47"/>
  <line class="cls-8" x1="250.07" y1="345.67" x2="250.07" y2="326.47"/>
  <line class="cls-8" x1="250.97" y1="345.67" x2="250.97" y2="326.47"/>
  <line class="cls-8" x1="249.11" y1="325.81" x2="249.11" y2="326.47"/>
  <polyline class="cls-8" points="250.97 325.81 250.97 326.47 249.11 326.47"/>
  <line class="cls-8" x1="249.11" y1="369.55" x2="249.11" y2="368.89"/>
  <polyline class="cls-8" points="250.97 369.55 250.97 368.89 249.11 368.89 249.11 349.69"/>
  <line class="cls-8" x1="250.07" y1="368.89" x2="250.07" y2="349.69"/>
  <line class="cls-8" x1="250.97" y1="368.89" x2="250.97" y2="349.69"/>
  <line class="cls-8" x1="249.11" y1="349.03" x2="249.11" y2="349.69"/>
  <polyline class="cls-8" points="250.97 349.03 250.97 349.69 249.11 349.69"/>
  <line class="cls-8" x1="249.11" y1="392.71" x2="249.11" y2="392.05"/>
  <polyline class="cls-8" points="250.97 392.71 250.97 392.05 249.11 392.05 249.11 372.85"/>
  <line class="cls-8" x1="250.07" y1="392.05" x2="250.07" y2="372.85"/>
  <line class="cls-8" x1="250.97" y1="392.05" x2="250.97" y2="372.85"/>
  <line class="cls-8" x1="249.11" y1="372.19" x2="249.11" y2="372.85"/>
  <polyline class="cls-8" points="250.97 372.19 250.97 372.85 249.11 372.85"/>
  <line class="cls-8" x1="249.11" y1="415.93" x2="249.11" y2="415.27"/>
  <polyline class="cls-8" points="250.97 415.93 250.97 415.21 249.11 415.27 249.11 396.07"/>
  <line class="cls-8" x1="250.07" y1="415.27" x2="250.07" y2="396.07"/>
  <line class="cls-8" x1="250.97" y1="415.21" x2="250.97" y2="396.07"/>
  <line class="cls-8" x1="249.11" y1="395.41" x2="249.11" y2="396.07"/>
  <polyline class="cls-8" points="250.97 395.41 250.97 396.07 249.11 396.07"/>
  <line class="cls-8" x1="249.11" y1="439.09" x2="249.11" y2="438.43"/>
  <polyline class="cls-8" points="250.97 439.09 250.97 438.43 249.11 438.43 249.11 419.23"/>
  <line class="cls-8" x1="250.07" y1="438.43" x2="250.07" y2="419.23"/>
  <line class="cls-8" x1="250.97" y1="438.43" x2="250.97" y2="419.23"/>
  <line class="cls-8" x1="249.11" y1="418.57" x2="249.11" y2="419.23"/>
  <polyline class="cls-8" points="250.97 418.57 250.97 419.23 249.11 419.23"/>
  <line class="cls-8" x1="249.11" y1="462.31" x2="249.11" y2="461.59"/>
  <polyline class="cls-8" points="250.97 462.31 250.97 461.59 249.11 461.59 249.11 442.45"/>
  <line class="cls-8" x1="250.07" y1="461.59" x2="250.07" y2="442.45"/>
  <line class="cls-8" x1="250.97" y1="461.59" x2="250.97" y2="442.45"/>
  <line class="cls-8" x1="249.11" y1="441.79" x2="249.11" y2="442.45"/>
  <polyline class="cls-8" points="250.97 441.79 250.97 442.45 249.11 442.45"/>
  <line class="cls-8" x1="249.11" y1="485.47" x2="249.11" y2="484.81"/>
  <polyline class="cls-8" points="250.97 485.47 250.97 484.81 249.11 484.81 249.11 465.61"/>
  <line class="cls-8" x1="250.07" y1="484.81" x2="250.07" y2="465.61"/>
  <line class="cls-8" x1="250.97" y1="484.81" x2="250.97" y2="465.61"/>
  <line class="cls-8" x1="249.11" y1="464.95" x2="249.11" y2="465.61"/>
  <polyline class="cls-8" points="250.97 464.95 250.97 465.61 249.11 465.61"/>
  <line class="cls-8" x1="249.11" y1="508.63" x2="249.11" y2="507.97"/>
  <polyline class="cls-8" points="250.97 508.63 250.97 507.97 249.11 507.97 249.11 488.83"/>
  <line class="cls-8" x1="250.07" y1="507.97" x2="250.07" y2="488.83"/>
  <line class="cls-8" x1="250.97" y1="507.97" x2="250.97" y2="488.83"/>
  <line class="cls-8" x1="249.11" y1="488.17" x2="249.11" y2="488.83"/>
  <polyline class="cls-8" points="250.97 488.11 250.97 488.83 249.11 488.83"/>
  <line class="cls-8" x1="249.11" y1="531.85" x2="249.11" y2="531.19"/>
  <polyline class="cls-8" points="250.97 531.85 250.97 531.19 249.11 531.19 249.11 511.99"/>
  <line class="cls-8" x1="250.07" y1="531.19" x2="250.07" y2="511.99"/>
  <line class="cls-8" x1="250.97" y1="531.19" x2="250.97" y2="511.99"/>
  <line class="cls-8" x1="249.11" y1="511.33" x2="249.11" y2="511.99"/>
  <polyline class="cls-8" points="250.97 511.33 250.97 511.99 249.11 511.99"/>
  <line class="cls-8" x1="249.11" y1="555.01" x2="249.11" y2="554.35"/>
  <polyline class="cls-8" points="250.97 555.01 250.97 554.35 249.11 554.35 249.11 535.21"/>
  <line class="cls-8" x1="250.07" y1="554.35" x2="250.07" y2="535.21"/>
  <line class="cls-8" x1="250.97" y1="554.35" x2="250.97" y2="535.15"/>
  <line class="cls-8" x1="249.11" y1="534.49" x2="249.11" y2="535.21"/>
  <polyline class="cls-8" points="250.97 534.49 250.97 535.15 249.11 535.21"/>
  <line class="cls-8" x1="249.11" y1="578.23" x2="249.11" y2="577.57"/>
  <polyline class="cls-8" points="250.97 578.23 250.97 577.57 249.11 577.57 249.11 558.37"/>
  <line class="cls-8" x1="250.07" y1="577.57" x2="250.07" y2="558.37"/>
  <line class="cls-8" x1="250.97" y1="577.57" x2="250.97" y2="558.37"/>
  <line class="cls-8" x1="249.11" y1="557.71" x2="249.11" y2="558.37"/>
  <polyline class="cls-8" points="250.97 557.71 250.97 558.37 249.11 558.37"/>
  <line class="cls-8" x1="249.11" y1="601.39" x2="249.11" y2="600.73"/>
  <polyline class="cls-8" points="250.97 601.39 250.97 600.73 249.11 600.73 249.11 581.53"/>
  <line class="cls-8" x1="250.07" y1="600.73" x2="250.07" y2="581.53"/>
  <line class="cls-8" x1="250.97" y1="600.73" x2="250.97" y2="581.53"/>
  <line class="cls-8" x1="249.11" y1="580.87" x2="249.11" y2="581.53"/>
  <polyline class="cls-8" points="250.97 580.87 250.97 581.53 249.11 581.53"/>
  <line class="cls-8" x1="249.11" y1="624.61" x2="249.11" y2="623.95"/>
  <polyline class="cls-8" points="250.97 624.61 250.97 623.95 249.11 623.95 249.11 604.75"/>
  <line class="cls-8" x1="250.07" y1="623.95" x2="250.07" y2="604.75"/>
  <line class="cls-8" x1="250.97" y1="623.95" x2="250.97" y2="604.75"/>
  <line class="cls-8" x1="249.11" y1="604.09" x2="249.11" y2="604.75"/>
  <polyline class="cls-8" points="250.97 604.09 250.97 604.75 249.11 604.75"/>
  <line class="cls-8" x1="249.11" y1="647.77" x2="249.11" y2="647.11"/>
  <polyline class="cls-8" points="250.97 647.77 250.97 647.11 249.11 647.11 249.11 627.91"/>
  <line class="cls-8" x1="250.07" y1="647.11" x2="250.07" y2="627.91"/>
  <line class="cls-8" x1="250.97" y1="647.11" x2="250.97" y2="627.91"/>
  <line class="cls-8" x1="249.11" y1="627.25" x2="249.11" y2="627.91"/>
  <polyline class="cls-8" points="250.97 627.25 250.97 627.91 249.11 627.91"/>
  <line class="cls-8" x1="249.11" y1="670.99" x2="249.11" y2="670.33"/>
  <polyline class="cls-8" points="250.97 670.99 250.97 670.27 249.11 670.33 249.11 651.13"/>
  <line class="cls-8" x1="250.07" y1="670.27" x2="250.07" y2="651.13"/>
  <line class="cls-8" x1="250.97" y1="670.27" x2="250.97" y2="651.13"/>
  <line class="cls-8" x1="249.11" y1="650.47" x2="249.11" y2="651.13"/>
  <polyline class="cls-8" points="250.97 650.47 250.97 651.13 249.11 651.13"/>
  <line class="cls-8" x1="249.11" y1="694.15" x2="249.11" y2="693.49"/>
  <polyline class="cls-8" points="250.97 694.15 250.97 693.49 249.11 693.49 249.11 674.29"/>
  <line class="cls-8" x1="250.07" y1="693.49" x2="250.07" y2="674.29"/>
  <line class="cls-8" x1="250.97" y1="693.49" x2="250.97" y2="674.29"/>
  <line class="cls-8" x1="249.11" y1="673.63" x2="249.11" y2="674.29"/>
  <polyline class="cls-8" points="250.97 673.63 250.97 674.29 249.11 674.29"/>
  <line class="cls-8" x1="249.11" y1="717.37" x2="249.11" y2="716.65"/>
  <polyline class="cls-8" points="250.97 717.31 250.97 716.65 249.11 716.65 249.11 697.51"/>
  <line class="cls-8" x1="250.07" y1="716.65" x2="250.07" y2="697.51"/>
  <line class="cls-8" x1="250.97" y1="716.65" x2="250.97" y2="697.51"/>
  <line class="cls-8" x1="249.11" y1="696.85" x2="249.11" y2="697.51"/>
  <polyline class="cls-8" points="250.97 696.85 250.97 697.51 249.11 697.51"/>
  <line class="cls-8" x1="249.11" y1="740.53" x2="249.11" y2="739.87"/>
  <polyline class="cls-8" points="250.97 740.53 250.97 739.87 249.11 739.87 249.11 720.67"/>
  <line class="cls-8" x1="250.07" y1="739.87" x2="250.07" y2="720.67"/>
  <line class="cls-8" x1="250.97" y1="739.87" x2="250.97" y2="720.67"/>
  <line class="cls-8" x1="249.11" y1="720.01" x2="249.11" y2="720.67"/>
  <polyline class="cls-8" points="250.97 720.01 250.97 720.67 249.11 720.67"/>
  <line class="cls-8" x1="249.11" y1="763.69" x2="249.11" y2="763.03"/>
  <polyline class="cls-8" points="250.97 763.69 250.97 763.03 249.11 763.03 249.11 743.89"/>
  <line class="cls-8" x1="250.07" y1="763.03" x2="250.07" y2="743.89"/>
  <line class="cls-8" x1="250.97" y1="763.03" x2="250.97" y2="743.89"/>
  <line class="cls-8" x1="249.11" y1="743.17" x2="249.11" y2="743.89"/>
  <polyline class="cls-8" points="250.97 743.17 250.97 743.89 249.11 743.89"/>
  <polyline class="cls-8" points="10.49 442.45 22.49 442.45 22.49 441.79"/>
  <polyline class="cls-8" points="21.17 441.79 21.17 443.11 10.49 443.11"/>
  <path class="cls-8" d="m10.51,443.06c1.11,5.05,5.5,8.72,10.67,8.92"/>
  <line class="cls-8" x1="22.49" y1="461.59" x2="10.49" y2="461.59"/>
  <polyline class="cls-8" points="21.17 462.31 21.17 460.93 10.49 460.93"/>
  <polyline class="cls-8" points="21.17 462.31 22.49 462.31 22.49 461.59"/>
  <line class="cls-8" x1="22.49" y1="441.79" x2="21.17" y2="441.79"/>
  <path class="cls-8" d="m21.18,451.99c-5.19.17-9.59,3.85-10.68,8.93"/>
  <line class="cls-8" x1="10.49" y1="460.93" x2="10.49" y2="461.59"/>
  <line class="cls-8" x1="10.49" y1="442.45" x2="10.49" y2="443.11"/>
  <polyline class="cls-8" points="210.47 555.55 210.47 551.05 212.33 551.05 212.33 555.55"/>
  <line class="cls-8" x1="210.47" y1="534.07" x2="210.47" y2="537.85"/>
  <polyline class="cls-8" points="212.33 534.07 212.33 537.85 210.47 537.85"/>
  <polyline class="cls-8" points="211.79 551.05 211.79 550.39 198.53 550.39"/>
  <line class="cls-8" x1="210.47" y1="549.73" x2="198.53" y2="549.73"/>
  <line class="cls-8" x1="210.47" y1="551.05" x2="211.79" y2="551.05"/>
  <polyline class="cls-8" points="210.47 538.51 211.79 538.51 211.79 537.85 210.47 537.85 210.47 538.51"/>
  <path class="cls-8" d="m210.47,538.49c-5.99.72-10.81,5.25-11.9,11.18"/>
  <line class="cls-8" x1="210.47" y1="549.73" x2="210.47" y2="551.05"/>
  <line class="cls-8" x1="198.53" y1="550.39" x2="198.53" y2="549.73"/>
  <line class="cls-8" x1="119.57" y1="161.05" x2="24.11" y2="161.05"/>
  <line class="cls-8" x1="119.57" y1="163.27" x2="24.11" y2="163.27"/>
  <line class="cls-8" x1="121.49" y1="215.23" x2="124.13" y2="215.23"/>
  <line class="cls-8" x1="96.23" y1="116.89" x2="96.23" y2="125.71"/>
  <polyline class="cls-8" points="94.31 116.89 94.31 125.71 96.23 125.71"/>
  <line class="cls-8" x1="119.57" y1="124.33" x2="119.57" y2="125.71"/>
  <line class="cls-8" x1="196.91" y1="208.45" x2="196.91" y2="177.79"/>
  <line class="cls-8" x1="196.91" y1="165.49" x2="196.91" y2="164.17"/>
  <line class="cls-8" x1="195.35" y1="208.45" x2="195.35" y2="182.29"/>
  <line class="cls-8" x1="195.35" y1="180.73" x2="195.35" y2="177.79"/>
  <line class="cls-8" x1="195.35" y1="165.49" x2="195.35" y2="164.17"/>
  <polyline class="cls-8" points="196.91 165.49 196.91 166.21 195.35 166.21 195.35 165.49 196.91 165.49"/>
  <polyline class="cls-8" points="196.91 177.13 196.91 177.79 195.35 177.79 195.35 177.13 196.91 177.13"/>
  <polyline class="cls-8" points="196.91 166.21 196.91 166.69 207.59 166.69"/>
  <path class="cls-8" d="m196.94,177.07c5.75,0,10.41-4.66,10.41-10.41"/>
  <polyline class="cls-8" points="207.59 166.69 207.59 166.21 196.91 166.21"/>
  <line class="cls-8" x1="195.35" y1="180.73" x2="171.89" y2="180.73"/>
  <line class="cls-8" x1="158.99" y1="180.73" x2="149.63" y2="180.73"/>
  <line class="cls-8" x1="195.35" y1="182.29" x2="171.89" y2="182.29"/>
  <line class="cls-8" x1="158.03" y1="182.29" x2="151.43" y2="182.29"/>
  <line class="cls-8" x1="196.91" y1="323.65" x2="196.91" y2="292.63"/>
  <line class="cls-8" x1="196.91" y1="280.33" x2="196.91" y2="278.95"/>
  <line class="cls-8" x1="195.35" y1="323.65" x2="195.35" y2="296.59"/>
  <line class="cls-8" x1="195.35" y1="294.97" x2="195.35" y2="292.63"/>
  <line class="cls-8" x1="195.35" y1="280.33" x2="195.35" y2="278.95"/>
  <polyline class="cls-8" points="196.91 280.33 196.91 280.99 195.35 280.99 195.35 280.33 196.91 280.33"/>
  <polyline class="cls-8" points="196.91 291.97 196.91 292.63 195.35 292.63 195.35 291.97 196.91 291.97"/>
  <polyline class="cls-8" points="196.91 280.99 196.91 281.53 207.59 281.53"/>
  <path class="cls-8" d="m196.94,291.91c5.75,0,10.41-4.66,10.41-10.41"/>
  <polyline class="cls-8" points="207.59 281.53 207.59 280.99 196.91 280.99"/>
  <line class="cls-8" x1="195.35" y1="294.97" x2="147.47" y2="294.97"/>
  <line class="cls-8" x1="195.35" y1="296.59" x2="152.03" y2="296.59"/>
  <line class="cls-8" x1="150.17" y1="322.33" x2="152.03" y2="322.33"/>
  <line class="cls-8" x1="150.17" y1="309.13" x2="152.03" y2="309.13"/>
  <polyline class="cls-8" points="150.71 322.33 150.71 321.67 163.97 321.67"/>
  <line class="cls-8" x1="152.03" y1="321.01" x2="163.97" y2="321.01"/>
  <line class="cls-8" x1="152.03" y1="322.33" x2="150.71" y2="322.33"/>
  <polyline class="cls-8" points="152.03 309.79 150.71 309.79 150.71 309.13 152.03 309.13 152.03 309.79"/>
  <path class="cls-8" d="m163.98,320.94c-1.09-5.93-5.91-10.46-11.9-11.18"/>
  <line class="cls-8" x1="152.03" y1="321.01" x2="152.03" y2="322.33"/>
  <line class="cls-8" x1="163.97" y1="321.67" x2="163.97" y2="321.01"/>
  <line class="cls-8" x1="100.31" y1="23.89" x2="100.31" y2="96.07"/>
  <line class="cls-8" x1="100.31" y1="109.27" x2="100.31" y2="114.67"/>
  <line class="cls-8" x1="102.53" y1="23.89" x2="102.53" y2="88.45"/>
  <line class="cls-8" x1="102.53" y1="90.67" x2="102.53" y2="96.07"/>
  <line class="cls-8" x1="102.53" y1="109.27" x2="102.53" y2="114.67"/>
  <line class="cls-8" x1="152.03" y1="114.67" x2="152.03" y2="88.45"/>
  <polyline class="cls-8" points="149.75 109.15 149.81 90.67 147.47 90.67"/>
  <line class="cls-8" x1="134.27" y1="90.67" x2="102.53" y2="90.67"/>
  <line class="cls-8" x1="152.03" y1="88.45" x2="147.47" y2="88.45"/>
  <line class="cls-8" x1="134.27" y1="88.45" x2="102.53" y2="88.45"/>
  <polyline class="cls-8" points="102.53 109.27 102.53 108.61 89.27 108.61"/>
  <line class="cls-8" x1="101.21" y1="107.95" x2="89.27" y2="107.89"/>
  <line class="cls-8" x1="101.21" y1="109.27" x2="102.53" y2="109.27"/>
  <polyline class="cls-8" points="101.21 96.73 102.53 96.73 102.53 96.07 101.21 96.07 101.21 96.73"/>
  <path class="cls-8" d="m101.21,96.71c-5.99.72-10.81,5.25-11.9,11.18"/>
  <line class="cls-8" x1="101.21" y1="107.95" x2="101.21" y2="109.27"/>
  <line class="cls-8" x1="89.27" y1="108.61" x2="89.27" y2="107.89"/>
  <line class="cls-8" x1="102.53" y1="96.07" x2="100.31" y2="96.07"/>
  <line class="cls-8" x1="102.53" y1="109.27" x2="100.31" y2="109.27"/>
  <polyline class="cls-8" points="147.47 90.67 146.81 90.67 146.81 77.41"/>
  <line class="cls-8" x1="146.15" y1="89.29" x2="146.15" y2="77.41"/>
  <line class="cls-8" x1="147.47" y1="89.29" x2="147.47" y2="90.67"/>
  <polyline class="cls-8" points="134.93 89.29 134.93 90.67 134.27 90.67 134.27 89.29 134.93 89.29"/>
  <path class="cls-8" d="m146.14,77.39c-5.93,1.09-10.46,5.91-11.18,11.9"/>
  <line class="cls-8" x1="146.15" y1="89.29" x2="147.47" y2="89.29"/>
  <line class="cls-8" x1="146.81" y1="77.41" x2="146.15" y2="77.41"/>
  <line class="cls-8" x1="147.47" y1="90.67" x2="147.47" y2="88.45"/>
  <line class="cls-8" x1="134.27" y1="90.67" x2="134.27" y2="88.45"/>
  <polyline class="cls-8" points="146.81 126.67 146.81 114.67 147.47 114.67"/>
  <polyline class="cls-8" points="147.47 115.99 146.15 115.99 146.15 126.67"/>
  <line class="cls-8" x1="124.79" y1="114.67" x2="124.79" y2="126.67"/>
  <polyline class="cls-8" points="124.13 115.99 125.45 115.99 125.45 126.67"/>
  <polyline class="cls-8" points="124.13 115.99 124.13 114.67 124.79 114.67"/>
  <line class="cls-8" x1="147.47" y1="114.67" x2="147.47" y2="115.99"/>
  <line class="cls-8" x1="125.45" y1="126.67" x2="124.79" y2="126.67"/>
  <line class="cls-8" x1="146.81" y1="126.67" x2="146.15" y2="126.67"/>
  <line class="cls-8" x1="124.13" y1="115.99" x2="124.13" y2="122.47"/>
  <line class="cls-8" x1="124.13" y1="114.67" x2="124.13" y2="109.15"/>
  <polyline class="cls-8" points="146.81 223.33 146.81 211.33 147.47 211.33"/>
  <polyline class="cls-8" points="147.47 212.65 146.15 212.65 146.15 223.33"/>
  <line class="cls-8" x1="124.79" y1="211.33" x2="124.79" y2="223.33"/>
  <polyline class="cls-8" points="124.13 212.65 125.45 212.65 125.45 223.33"/>
  <polyline class="cls-8" points="124.13 212.65 124.13 211.33 124.79 211.33"/>
  <line class="cls-8" x1="147.47" y1="211.33" x2="147.47" y2="212.65"/>
  <line class="cls-8" x1="125.45" y1="223.33" x2="124.79" y2="223.33"/>
  <line class="cls-8" x1="146.81" y1="223.33" x2="146.15" y2="223.33"/>
  <polyline class="cls-8" points="146.81 441.19 146.81 429.13 147.47 429.13"/>
  <polyline class="cls-8" points="147.47 430.51 146.15 430.51 146.15 441.19"/>
  <line class="cls-8" x1="124.79" y1="429.13" x2="124.79" y2="441.19"/>
  <polyline class="cls-8" points="124.13 430.51 125.45 430.51 125.45 441.19"/>
  <polyline class="cls-8" points="124.13 430.51 124.13 429.13 124.79 429.13"/>
  <line class="cls-8" x1="147.47" y1="429.13" x2="147.47" y2="430.51"/>
  <line class="cls-8" x1="125.45" y1="441.19" x2="124.79" y2="441.19"/>
  <line class="cls-8" x1="146.81" y1="441.19" x2="146.15" y2="441.19"/>
  <polyline class="cls-8" points="146.81 658.03 146.81 645.97 147.47 645.97"/>
  <polyline class="cls-8" points="147.47 647.35 146.15 647.35 146.15 658.03"/>
  <line class="cls-8" x1="124.79" y1="645.97" x2="124.79" y2="658.03"/>
  <polyline class="cls-8" points="124.13 647.35 125.45 647.35 125.45 658.03"/>
  <polyline class="cls-8" points="124.13 647.35 124.13 645.97 124.79 645.97"/>
  <line class="cls-8" x1="147.47" y1="645.97" x2="147.47" y2="647.35"/>
  <line class="cls-8" x1="125.45" y1="658.03" x2="124.79" y2="658.03"/>
  <line class="cls-8" x1="146.81" y1="658.03" x2="146.15" y2="658.03"/>
  <line class="cls-8" x1="123.05" y1="678.97" x2="124.13" y2="678.97"/>
  <line class="cls-8" x1="121.49" y1="645.97" x2="124.13" y2="645.97"/>
  <line class="cls-8" x1="147.47" y1="645.97" x2="150.29" y2="645.97"/>
  <line class="cls-8" x1="121.49" y1="647.35" x2="124.13" y2="647.35"/>
  <line class="cls-8" x1="147.47" y1="647.35" x2="150.29" y2="647.35"/>
  <line class="cls-8" x1="121.49" y1="429.13" x2="124.13" y2="429.13"/>
  <line class="cls-8" x1="147.47" y1="429.13" x2="150.17" y2="429.13"/>
  <line class="cls-8" x1="121.49" y1="430.51" x2="124.13" y2="430.51"/>
  <line class="cls-8" x1="147.47" y1="430.51" x2="150.17" y2="430.51"/>
  <line class="cls-8" x1="158.99" y1="182.05" x2="158.99" y2="194.05"/>
  <line class="cls-8" x1="159.65" y1="182.05" x2="159.65" y2="193.93"/>
  <polyline class="cls-8" points="170.99 182.05 170.99 180.73 171.89 180.73 171.89 182.05 170.99 182.05"/>
  <path class="cls-8" d="m159.69,193.98c6.12-.85,10.83-5.84,11.32-12"/>
  <line class="cls-8" x1="158.99" y1="194.05" x2="159.65" y2="194.05"/>
  <line class="cls-8" x1="171.89" y1="180.73" x2="170.99" y2="180.73"/>
  <line class="cls-8" x1="171.89" y1="180.73" x2="171.89" y2="182.29"/>
  <polyline class="cls-8" points="158.03 182.05 158.03 180.73 158.99 180.73 158.99 182.05 158.03 182.05"/>
  <line class="cls-8" x1="158.03" y1="180.73" x2="158.03" y2="182.29"/>
  <polyline class="cls-8" points="158.99 182.05 159.65 182.05 159.65 194.05"/>
  <g id="G9">
    <path class="cls-6" d="m152.4,114.33l94.77-.02v-.89s2.23-.02,2.23-.02V25.44s-2.2-.01-2.2-.01l-.04-1.18h-9.67s-13.05-13.29-13.05-13.29l-12.97,13.26h-16.33s-12.45-12.75-12.45-12.75l-12.42,12.79-15.17-.03-13.03-13.35-11.36,11.76v1.6s-27.81,0-27.81,0l-.03,63.84h31.92s1.81-9.91,12.34-11.18v11.18h5.24s.03,26.24.03,26.24Z"/>
    <text class="cls-3" transform="translate(170.09 69.43)"><tspan x="0" y="0">G9</tspan></text>
  </g>
  <g id="G8">
    <path class="cls-6" d="m99.95,24.25H23.17s-.03,90.06-.03,90.06h76.81s.14-5.34.14-5.34h-11.24s.67-10,11.23-12.44c-.36-13-.12-72.28-.12-72.28Z"/>
    <text class="cls-3" transform="translate(55.74 73.64)"><tspan x="0" y="0">G8</tspan></text>
  </g>
  <g id="G7">
    <path class="cls-6" d="m107.25,141.76h11.96l.06-24.52h-22.68v8.84s-2.56-.04-2.56-.04l-.07-8.77-70.81-.05-.04,43.52,96.08-.03v-6.46s-10.28-1.36-11.93-12.48Z"/>
    <text class="cls-3" transform="translate(56.34 142.75)"><tspan x="0" y="0">G7</tspan></text>
  </g>
  <g id="G16">
    <path class="cls-6" d="m248.75,276.97v-66.68h-96.35v42.07s11.97.07,11.97.07c0,0-.54,10.38-11.98,12.42.04,4.43,0,12.13,0,12.13h96.36Z"/>
    <text class="cls-3" transform="translate(191.07 246.36)"><tspan x="0" y="0">G16</tspan></text>
  </g>
  <g id="G17">
    <path class="cls-6" d="m197.26,323.29h51.49s0-43.99,0-43.99h-51.51v1.35h10.6s.29,10.61-10.55,11.6c-.04,3.61-.02,31.04-.02,31.04Z"/>
    <text class="cls-3" transform="translate(212.41 306.25)"><tspan x="0" y="0">G17</tspan></text>
  </g>
  <g id="G19">
    <path class="cls-6" d="m248.74,392.82l.02-67.07-96.38-.02v34.1h12.1s-.64,10.27-12.08,12.46c-.03,7.76-.02,20.56-.02,20.56l96.36-.02Z"/>
    <text class="cls-3" transform="translate(190.47 360.79)"><tspan x="0" y="0">G19</tspan></text>
  </g>
  <g id="G20">
    <path class="cls-6" d="m152.36,462.14h96.38s.02-66.88.02-66.88h-96.39s.03,7.43.03,7.43c0,0,10.25.83,11.99,12.54h-12.01l-.02,46.9Z"/>
    <text class="cls-3" transform="translate(190.47 433.69)"><tspan x="0" y="0">G20</tspan></text>
  </g>
  <g id="G21">
    <path class="cls-6" d="m152.42,532l96.33-.04v-66.92s-96.28,0-96.28,0l.05,42.96h12s-.43,10.34-12,12.44c-.1,2.33-.1,11.56-.1,11.56Z"/>
    <text class="cls-3" transform="translate(189.87 500.59)"><tspan x="0" y="0">G21</tspan></text>
  </g>
  <g id="G22">
    <path class="cls-6" d="m210.1,550.75v4.44s-36.23-.01-36.23-.01v-20.76s36.23-.01,36.23-.01l.03,3.77s-10.42,1.45-12.12,12.54c6.14.02,12.1.03,12.1.03Z"/>
    <text class="cls-2" transform="translate(178.07 547.56)"><tspan x="0" y="0">G22</tspan></text>
  </g>
  <g id="G23">
    <path class="cls-6" d="m248.75,557.52l.02,66.9h-96.27v-52.52s12,0,12,0c0,0-.56-10.49-11.97-12.54-.02-1.55-.01-1.82-.01-1.82l96.23-.03Z"/>
    <text class="cls-3" transform="translate(189.27 595.97)"><tspan x="0" y="0">G23</tspan></text>
  </g>
  <g id="G24">
    <path class="cls-11" d="m248.77,627.35l-.03,136-96.36-.03.11-122.44s10.5-1.04,11.97-12.47c-2.56,0-11.97,0-11.97,0v-1.11l96.28.05Z"/>
    <text class="cls-3" transform="translate(189.27 701.42)"><tspan x="0" y="0">G24</tspan></text>
  </g>
  <g id="G2">
    <path class="cls-6" d="m107.29,558.65h12.05s0-.87,0-.87l-96.23-.03v112.91s96.09-.03,96.09-.03l.11-99.44s-10.04-1.11-12.03-12.53Z"/>
    <text class="cls-3" transform="translate(62.53 618.5)"><tspan x="0" y="0">G2</tspan></text>
  </g>
  <g id="G1">
    <path class="cls-6" d="m45.44,739.09h12.07v14.89s-33.05-.02-33.05-.02v-73.31s33.06,0,33.06,0v45.94s-10.42,1.2-12.08,12.51Z"/>
    <text class="cls-3" transform="translate(33.87 721.36)"><tspan x="0" y="0">G1</tspan></text>
  </g>
  <g id="G21a">
    <path class="cls-6" d="m248.76,534.45v20.75s-21.04,0-21.04,0v-20.78h.62s.07,11.96.07,11.96c0,0,10.61-.85,12.51-11.99,5.48.01,7.84.06,7.84.06Z"/>
    <text class="cls-4" transform="translate(232.19 551.99)"><tspan x="0" y="0">G21a</tspan></text>
  </g>
  <g id="G4">
    <path class="cls-6" d="m107.3,478.57l12.04.05v76.25s-96.2,0-96.2,0l-.03-89.81,96.2-.03v1.09s-10.3,1.16-12.01,12.44Z"/>
    <text class="cls-3" transform="translate(63.13 514.58)"><tspan x="0" y="0">G4</tspan></text>
  </g>
  <g id="G5">
    <path class="cls-6" d="m107.4,404.02l11.92-.04v-101.28s-96.19,0-96.19,0v136.22s96.2,0,96.2,0v-22.44s-10.58-1.65-11.93-12.47Z"/>
    <text class="cls-3" transform="translate(62.53 370.87)"><tspan x="0" y="0">G5</tspan></text>
  </g>
  <g id="G18">
    <path class="cls-6" d="m194.97,296.94h-42.6s.01,12.51.01,12.51c0,0,10.58,1.22,12.07,12.54-3,0-12.08,0-12.08,0v1.27l42.63.03-.03-26.35Z"/>
    <text class="cls-1" transform="translate(168.47 312.91)"><tspan x="0" y="0">G18</tspan></text>
  </g>
  <g id="G14">
    <path class="cls-6" d="m248.74,164.5l-51.46.04v1.31s10.53.06,10.53.06c0,0,.68,10.07-10.53,11.48-.05,2.97-.01,30.72-.01,30.72l51.52.02-.04-43.63Z"/>
    <text class="cls-3" transform="translate(213.02 191.05)"><tspan x="0" y="0">G14</tspan></text>
  </g>
  <g id="G15">
    <path class="cls-6" d="m194.99,182.61v25.49s-43.19-.03-43.19-.03l-.07-25.63,6.88-.04v11.96s10.85-.22,12.72-11.78c7.69-.04,23.67.03,23.67.03Z"/>
    <text class="cls-5" transform="translate(171.89 200.12)"><tspan x="0" y="0">G15</tspan></text>
  </g>
  <g id="G6">
    <path class="cls-6" d="m107.19,270.4h12.01v-106.77s-96.04,0-96.04,0l-.02,136.22,96.07-.03v-16.96s-10.32-1.23-12.01-12.47Z"/>
    <text class="cls-3" transform="translate(62.53 237.66)"><tspan x="0" y="0">G6</tspan></text>
  </g>
  <rect class="cls-7" x=".5" y=".5" width="270" height="782"/>
</svg>